<svg width="24" height="24" viewBox="0 0 24 24" fill="none" xmlns="http://www.w3.org/2000/svg">
<path d="M12 2C6.47656 2 2 6.47656 2 12C2 16.2383 4.63672 19.8555 8.35547 21.3125C8.26953 20.5195 8.1875 19.3086 8.39062 18.4453C8.57422 17.6641 9.5625 13.4766 9.5625 13.4766C9.5625 13.4766 9.26172 12.8789 9.26172 11.9922C9.26172 10.6016 10.0664 9.5625 11.0703 9.5625C11.9219 9.5625 12.3359 10.2031 12.3359 10.9727C12.3359 11.832 11.7891 13.1133 11.5078 14.3008C11.2734 15.2969 12.0078 16.1094 12.9883 16.1094C14.7656 16.1094 16.1328 14.2344 16.1328 11.5312C16.1328 9.13672 14.4141 7.46094 11.957 7.46094C9.11328 7.46094 7.44141 9.59375 7.44141 11.8008C7.44141 12.6602 7.77344 13.582 8.1875 14.082C8.26953 14.1797 8.28125 14.2695 8.25781 14.3672C8.18359 14.6836 8.01172 15.3633 7.98047 15.5C7.9375 15.6836 7.83594 15.7227 7.64453 15.6328C6.39453 15.0508 5.61328 13.2266 5.61328 11.7578C5.61328 8.60156 7.90625 5.70703 12.2188 5.70703C15.6875 5.70703 18.3828 8.17969 18.3828 11.4844C18.3828 14.9297 16.2109 17.7031 13.1953 17.7031C12.1836 17.7031 11.2305 17.1758 10.9023 16.5547C10.9023 16.5547 10.4023 18.4648 10.2812 18.9336C10.0547 19.8008 9.44531 20.8906 9.03906 21.5547C9.97656 21.8438 10.9688 22 12 22C17.5234 22 22 17.5234 22 12C22 6.47656 17.5234 2 12 2Z" fill="#323377"/>
</svg>
