<svg width="24" height="24" viewBox="0 0 24 24" fill="none" xmlns="http://www.w3.org/2000/svg">
<path d="M20.997 10.0102C20.8251 10.0269 20.6526 10.0357 20.4799 10.0365C19.5475 10.0366 18.6297 9.80452 17.8094 9.36122C16.9892 8.91791 16.2922 8.27731 15.7814 7.49725V16.1439C15.7814 17.4078 15.4066 18.6434 14.7044 19.6944C14.0022 20.7453 13.0041 21.5644 11.8363 22.0481C10.6686 22.5318 9.38364 22.6584 8.14396 22.4118C6.90428 22.1652 5.76556 21.5566 4.8718 20.6628C3.97804 19.769 3.36939 18.6303 3.1228 17.3906C2.87621 16.151 3.00277 14.866 3.48647 13.6983C3.97017 12.5305 4.78928 11.5324 5.84023 10.8302C6.89118 10.128 8.12676 9.75315 9.39073 9.75315C9.52413 9.75315 9.65454 9.76514 9.7857 9.77339V12.9227C9.65454 12.9069 9.52563 12.8829 9.39073 12.8829C8.52567 12.8829 7.69605 13.2266 7.08436 13.8383C6.47268 14.4499 6.12904 15.2796 6.12904 16.1446C6.12904 17.0097 6.47268 17.8393 7.08436 18.451C7.69605 19.0627 8.52567 19.4063 9.39073 19.4063C11.1924 19.4063 12.7836 17.9868 12.7836 16.1851L12.8151 1.5H15.8279C15.9656 2.80909 16.559 4.02814 17.5045 4.94399C18.4499 5.85985 19.6872 6.41423 21 6.5102V10.0102" fill="#323377"/>
</svg>
