<svg width="400" height="383" viewBox="0 0 400 383" fill="none" xmlns="http://www.w3.org/2000/svg">
<path d="M330.4 288.7L330.1 288.399C330.1 288.399 234.4 283.9 227 283.6C219.6 283.2 162.5 272.3 153 270.6C143.5 268.9 134 270.9 121.7 270.6C109.4 270.3 109 256.299 109 256.299C109 256.299 113.7 221.999 156 230.499C198.3 238.999 253.3 246.999 253.3 246.999C253.3 246.999 269 248.699 305.3 248.699C341.6 248.699 370.1 230.499 370.1 230.499H371.1C371.1 230.499 378.7 231.499 378.7 241.499C378.7 251.499 359.3 260.7 359.3 260.7V262.999C359.3 262.999 363.1 266.999 363.1 270.299C363.1 273.599 358.1 288.6 330.6 288.6C330.7 288.4 330.6 288.5 330.4 288.7Z" fill="#A55B36"/>
<path d="M3.60083 225.6C3.40083 201.9 7.50083 177 8.30083 172.8C9.90083 164.4 34.0008 109.6 44.3008 104.6C45.0008 104.3 46.6008 103 47.2008 102.6C50.4008 100.5 58.7008 95.7996 64.6008 95.7996C64.6008 95.7996 91.9008 7.49956 159.101 7.49956C159.101 7.49956 188.401 4.49957 223.301 31.4996C235.601 49.6996 235.901 64.9996 235.901 64.9996C235.901 74.7996 263.701 87.7996 263.701 92.7996C263.701 97.7996 261.401 99.7996 261.401 99.7996C240.401 88.4996 199.401 89.7996 199.401 89.7996C178.101 89.7996 147.401 116.1 136.401 116.1C135.401 115.8 119.401 116.1 117.401 116.1C115.401 116.1 113.701 117.1 113.701 121.4C113.701 125.7 118.401 126.7 118.401 126.7L129.101 127L140.101 129.2C160.801 145 174.401 152 186.101 152.7C186.701 152.7 187.401 152.8 188.201 152.8C200.601 153.3 223.801 152.7 223.801 152.7C223.801 152.7 239.101 150.8 252.001 146.3C257.901 144.2 263.201 141.6 266.501 138.4C266.501 138.4 268.501 143.1 269.801 144.4C271.101 145.7 308.401 150.2 309.801 150.4C338.201 150.4 357.801 147.2 370.201 144.2C380.401 141.7 385.601 139.2 386.801 138.6L386.701 142.6C386.701 144.5 385.601 146.2 383.901 147.1L372.401 153.2C372.401 153.2 369.201 166.2 341.701 178.5C341.701 178.5 373.501 202.3 371.201 230.3H370.201C370.201 230.3 341.801 248.5 305.401 248.5C269.001 248.5 253.401 246.8 253.401 246.8C253.401 246.8 198.401 238.8 156.101 230.3C113.801 221.8 109.101 256.1 109.101 256.1C109.101 256.1 109.401 270.1 121.801 270.4C134.101 270.7 143.601 268.7 153.101 270.4C162.601 272.1 219.701 283 227.101 283.4C234.501 283.7 330.201 288.2 330.201 288.2L330.501 288.5C328.601 290.8 315.001 306 279.201 318.9C279.201 318.9 269.101 319.9 268.801 322.9C268.701 323.5 268.701 324.1 268.701 324.7H268.401H259.401H258.401C258.401 324.7 243.101 327.7 236.801 327.7C230.501 327.7 167.501 327.7 167.501 327.7C167.501 327.7 80.8008 326.7 19.5008 293.2H19.0008C19.0008 293.2 8.20083 278.2 8.20083 275.9C8.20083 274.9 3.80083 250.9 3.60083 225.6Z" fill="#5A8D3E"/>
<path d="M393.901 124.899C394.201 130.199 397.701 130.199 386.601 138.699V138.799C385.401 139.399 380.201 141.799 370.001 144.399L369.801 143.599C369.801 143.599 370.101 112.599 338.801 112.599C307.501 112.599 309.601 143.999 309.601 150.099V150.599C308.201 150.399 271.001 145.999 269.601 144.599C268.201 143.199 266.301 138.599 266.301 138.599C266.301 138.599 272.301 128.599 272.301 121.899C272.301 121.899 272.401 121.899 272.601 121.799C276.001 120.599 313.401 108.199 359.701 108.199C359.701 108.199 380.601 109.399 391.301 118.899C392.401 120.199 393.801 122.099 393.901 124.899Z" fill="white"/>
<path d="M392.402 111.1V113.9C392.402 113.9 391.902 116.4 390.402 116.9C389.702 117.1 390.402 117.8 391.402 119C380.702 109.4 359.802 108.3 359.802 108.3C313.502 108.3 276.102 120.7 272.702 121.9L272.402 121C272.402 121 270.402 114.3 268.702 112C267.002 109.7 245.002 111 234.702 112C215.102 112 173.702 129.5 140.002 129.5L129.002 127.3L118.302 127C118.302 127 113.602 126 113.602 121.7C113.602 117.4 115.302 116.4 117.302 116.4C119.302 116.4 135.302 116.1 136.302 116.4C147.302 116.4 178.002 90.1 199.302 90.1C199.302 90.1 240.302 88.8 261.302 100.1C261.302 100.1 263.602 98.1 263.602 93.1C263.602 88.1 235.802 75.1 235.802 65.3C235.802 65.3 235.402 50 223.202 31.9C223.202 31.9 256.902 13 278.102 13C318.402 13 334.602 43.7 334.602 65.2C334.602 65.2 354.302 67.6 370.302 84.4V89.2C370.302 89.2 378.302 90 383.302 97.7V105.2C383.402 104.9 388.402 106.4 392.402 111.1Z" fill="#5A8D3E"/>
<path d="M369.901 143.5L370.101 144.3C357.701 147.4 338.101 150.5 309.701 150.5V150C309.701 143.9 307.501 112.5 338.901 112.5C370.301 112.5 369.901 143.5 369.901 143.5ZM352.801 135C352.801 131.4 350.201 130.5 349.001 130.3C348.601 130.2 348.201 130.3 347.901 130.4C346.501 130.8 342.501 132.3 342.501 134.7C342.501 137.7 346.301 140.8 348.401 140.8C350.501 140.8 352.801 139.8 352.801 135ZM335.501 124.6C335.501 120.4 332.201 120.9 332.201 120.9C332.201 120.9 326.901 121.4 326.901 124.1C326.901 126.8 331.401 128.2 331.601 128.1C331.701 127.9 335.501 128.8 335.501 124.6ZM328.801 143.7C328.801 143.7 331.701 143.4 331.601 140.9C331.601 139.7 330.901 139 330.201 138.7C329.301 138.2 328.301 138.3 327.401 138.8C326.701 139.2 326.101 139.9 326.101 141C326.001 143.3 328.801 143.7 328.801 143.7Z" fill="black"/>
<path d="M349 130.4C350.2 130.6 352.8 131.4 352.8 135.1C352.8 139.8 350.4 141 348.4 141C346.4 141 342.5 137.9 342.5 134.9C342.5 132.4 346.5 131 347.9 130.6C348.3 130.4 348.7 130.3 349 130.4Z" fill="white"/>
<path d="M332.2 121C332.2 121 335.5 120.5 335.5 124.7C335.5 128.9 331.8 128 331.6 128.2C331.4 128.4 326.9 126.9 326.9 124.2C326.9 121.4 332.2 121 332.2 121Z" fill="white"/>
<path d="M331.602 140.9C331.702 143.4 328.802 143.7 328.802 143.7C328.802 143.7 326.102 143.3 326.102 141C326.102 139.8 326.802 139.2 327.402 138.8C328.302 138.3 329.302 138.3 330.202 138.7C330.902 139 331.502 139.7 331.602 140.9Z" fill="white"/>
<path d="M301.9 353.499C310.525 364.51 301.19 378.899 287.204 378.899H30.4004C17.1456 378.899 6.40039 368.154 6.40039 354.899V306.232C6.40039 301.962 9.39311 298.216 13.6262 297.66C14.5539 297.538 15.4427 297.443 16.2004 297.399H16.7004C20.7004 304.899 61.7004 322.699 61.7004 322.699C90.5004 337.299 147 340.099 150 340.199L195.5 341.699C258.7 341.699 259.5 327.899 259.5 327.899V324.899H268.5H268.8C268.8 327.099 268.9 328.899 268.9 328.899C268.9 328.899 297.2 347.499 301.9 353.499V353.499Z" fill="#0445FF"/>
<path d="M272.4 120.9L272.7 121.8C272.5 121.9 272.4 121.9 272.4 121.9C272.4 128.6 266.4 138.6 266.4 138.6C263.2 141.8 257.8 144.4 251.9 146.5L251.6 145.899C251.6 145.899 246.9 114.6 215.1 119.9C183.3 125.2 188.1 145.199 188.1 152.399V153C187.4 153 186.7 152.899 186 152.899C174.3 152.199 160.7 145.199 140 129.399C173.7 129.399 215.1 111.9 234.7 111.9C245 110.9 267 109.6 268.7 111.9C270.4 114.2 272.4 120.9 272.4 120.9Z" fill="white"/>
<path d="M259.402 324.899V327.899C259.402 327.899 258.602 341.699 195.402 341.699L149.902 340.199C146.902 340.099 90.4016 337.299 61.6016 322.699C61.6016 322.699 20.6016 304.899 16.6016 297.399H16.1016C16.1016 297.399 15.8016 295.599 18.9016 293.399H19.4016C80.7016 326.899 167.402 327.899 167.402 327.899C167.402 327.899 230.402 327.899 236.702 327.899C243.002 327.899 258.302 324.899 258.302 324.899H259.402Z" fill="#5A8D3E"/>
<path d="M251.701 145.9L252.001 146.5C239.101 151 223.801 152.9 223.801 152.9C223.801 152.9 200.601 153.5 188.201 153V152.4C188.201 145.1 183.401 125.1 215.201 119.9C247.001 114.7 251.701 145.9 251.701 145.9ZM234.201 138.6C234.201 136.5 232.101 135.2 230.501 134.6C229.301 134.1 227.901 134.2 226.701 134.8C225.201 135.6 223.201 136.8 223.201 138.2C223.201 140.5 224.901 144.6 228.101 144.6C231.301 144.5 234.201 142.1 234.201 138.6ZM210.401 132.8C211.601 132.4 213.301 131.5 213.201 128.8C213.101 124.8 208.901 124.7 208.901 124.7C208.901 124.7 204.801 124.9 204.801 128.6C204.801 131.3 207.201 132.4 208.501 132.8C209.101 133 209.701 133 210.401 132.8ZM213.201 146.6C213.201 145.1 211.501 144.3 210.701 144.1C210.401 144 210.101 144 209.801 144.1C208.301 144.5 207.401 145.6 207.401 146.6C207.401 147.2 208.301 149.2 209.901 149.2C211.501 149.1 213.201 148.5 213.201 146.6Z" fill="black"/>
<path d="M230.501 134.499C232.201 135.199 234.201 136.399 234.201 138.499C234.201 141.999 231.301 144.499 228.101 144.499C224.901 144.499 223.201 140.399 223.201 138.099C223.201 136.699 225.201 135.499 226.701 134.699C227.901 134.099 229.301 134.099 230.501 134.499Z" fill="white"/>
<path d="M213.201 128.799C213.301 131.399 211.601 132.399 210.401 132.799C209.801 132.999 209.101 132.999 208.501 132.799C207.201 132.399 204.801 131.299 204.801 128.599C204.801 124.899 208.901 124.699 208.901 124.699C208.901 124.699 213.101 124.899 213.201 128.799Z" fill="white"/>
<path d="M210.601 144.099C211.401 144.399 213.101 145.099 213.101 146.599C213.101 148.599 211.401 149.099 209.801 149.099C208.201 149.099 207.301 147.099 207.301 146.499C207.301 145.499 208.201 144.399 209.701 143.999C210.001 143.899 210.301 143.999 210.601 144.099Z" fill="white"/>
<path d="M391.401 118.899C392.401 120.199 393.801 122.099 393.901 124.799C394.201 130.099 397.701 130.099 386.601 138.599V138.699L386.501 142.699C386.501 144.599 385.401 146.299 383.701 147.199L372.201 153.299C372.201 153.299 369.001 166.299 341.501 178.599C341.501 178.599 373.301 202.399 371.001 230.399C371.001 230.399 378.601 231.399 378.601 241.399C378.601 251.399 359.201 260.599 359.201 260.599V262.899C359.201 262.899 363.001 266.899 363.001 270.199C363.001 273.499 358.001 288.499 330.501 288.499C330.501 288.499 330.401 288.599 330.301 288.799C328.401 291.099 314.801 306.299 279.001 319.199C279.001 319.199 268.901 320.199 268.601 323.199C268.501 323.799 268.501 324.399 268.501 324.999C268.501 327.199 268.601 328.999 268.601 328.999C268.601 328.999 296.901 347.599 301.601 353.599V353.599C310.226 364.61 300.891 378.999 286.904 378.999H30.4008C17.146 378.999 6.40083 368.254 6.40083 354.999V306.332C6.40083 302.062 9.39355 298.316 13.6266 297.759C14.5543 297.637 15.4432 297.542 16.2008 297.499C16.2008 297.499 15.9008 295.699 19.0008 293.499C19.0008 293.499 8.20083 278.499 8.20083 276.199C8.20083 274.999 3.80083 250.999 3.60083 225.699C3.40083 201.999 7.50083 177.099 8.30083 172.899C9.90083 164.499 34.0008 109.699 44.3008 104.699C45.0008 104.399 46.6008 103.099 47.2008 102.699C50.4008 100.599 58.7008 95.8992 64.6008 95.8992C64.6008 95.8992 91.9008 7.59917 159.101 7.59917C159.101 7.59917 188.401 4.59917 223.301 31.5992C223.301 31.5992 257.001 12.6992 278.201 12.6992C318.501 12.6992 334.701 43.3992 334.701 64.8992C334.701 64.8992 354.401 67.2992 370.401 84.0992V88.8992C370.401 88.8992 378.401 89.6992 383.401 97.3992V104.899C383.401 104.899 388.401 106.399 392.401 111.199V113.999C392.401 113.999 391.901 116.499 390.401 116.999C389.701 117.099 390.401 117.699 391.401 118.899Z" stroke="black" stroke-width="2" stroke-miterlimit="10" stroke-linecap="round"/>
<path d="M272.701 121.799C276.101 120.599 313.501 108.199 359.801 108.199C359.801 108.199 380.701 109.399 391.401 118.899" stroke="black" stroke-width="2" stroke-miterlimit="10" stroke-linecap="round"/>
<path d="M386.901 138.599C386.901 138.599 386.801 138.599 386.601 138.699C385.401 139.299 380.201 141.699 370.001 144.299C357.601 147.399 338.001 150.499 309.601 150.499C308.201 150.299 271.001 145.899 269.601 144.499C268.201 143.099 266.301 138.499 266.301 138.499C266.301 138.499 272.301 128.499 272.301 121.799C272.301 121.799 272.401 121.799 272.601 121.699" stroke="black" stroke-width="1.75" stroke-miterlimit="10" stroke-linecap="round"/>
<path d="M266.4 138.499C263.2 141.699 257.8 144.299 251.9 146.399C239 150.899 223.7 152.799 223.7 152.799C223.7 152.799 200.5 153.399 188.1 152.899C187.4 152.899 186.7 152.799 186 152.799C174.3 152.099 160.7 145.099 140 129.299" stroke="black" stroke-width="1.75" stroke-miterlimit="10" stroke-linecap="round"/>
<path d="M223.301 31.5996C235.601 49.6996 235.901 64.9996 235.901 64.9996C235.901 74.7996 263.701 87.7996 263.701 92.7996C263.701 97.7996 261.401 99.7996 261.401 99.7996C240.401 88.4996 199.401 89.7996 199.401 89.7996C178.101 89.7996 147.401 116.1 136.401 116.1C135.401 115.8 119.401 116.1 117.401 116.1C115.401 116.1 113.701 117.1 113.701 121.4C113.701 125.7 118.401 126.7 118.401 126.7L129.101 127L140.101 129.2C173.801 129.2 215.201 111.7 234.801 111.7C245.101 110.7 267.101 109.4 268.801 111.7C270.501 114 272.501 120.7 272.501 120.7" stroke="black" stroke-width="1.75" stroke-miterlimit="10" stroke-linecap="round"/>
<path d="M370.202 230.399C370.202 230.399 341.802 248.599 305.402 248.599C269.002 248.599 253.402 246.899 253.402 246.899C253.402 246.899 198.402 238.899 156.102 230.399C113.802 221.899 109.102 256.199 109.102 256.199C109.102 256.199 109.402 270.199 121.802 270.499C134.102 270.799 143.602 268.799 153.102 270.499C162.602 272.199 219.702 283.099 227.102 283.499C234.502 283.799 330.202 288.299 330.202 288.299" stroke="black" stroke-width="1.75" stroke-miterlimit="10" stroke-linecap="round"/>
<path d="M259.402 324.899V327.899C259.402 327.899 258.602 341.699 195.402 341.699L149.902 340.199C146.902 340.099 90.4016 337.299 61.6016 322.699C61.6016 322.699 20.6016 304.899 16.6016 297.399" stroke="black" stroke-width="2" stroke-miterlimit="10" stroke-linecap="round"/>
<path d="M19.4004 293.399C80.7004 326.899 167.4 327.899 167.4 327.899C167.4 327.899 230.4 327.899 236.7 327.899C243 327.899 258.3 324.899 258.3 324.899H259.3H268.3" stroke="black" stroke-width="2" stroke-miterlimit="10" stroke-linecap="round"/>
<path d="M251.701 145.899C251.701 145.899 247.001 114.599 215.201 119.899C183.401 125.199 188.201 145.199 188.201 152.399" stroke="black" stroke-width="1.75" stroke-miterlimit="10" stroke-linecap="round"/>
<path d="M369.901 143.499C369.901 143.499 370.201 112.499 338.901 112.499C307.601 112.499 309.701 143.899 309.701 149.999" stroke="black" stroke-width="1.75" stroke-miterlimit="10"/>
<path d="M134.4 251.9H160C160.2 251.9 160.5 251.9 160.7 252C166.6 253.1 241.4 267.4 258 266.4C258 266.4 318.3 270.5 359.3 261.4" stroke="black" stroke-width="2" stroke-miterlimit="10" stroke-linecap="round"/>
<path d="M95.4004 269.2C95.4004 269.2 98.7004 288.5 121.7 290.2" stroke="black" stroke-width="1.75" stroke-miterlimit="10" stroke-linecap="round"/>
<path d="M189.801 192.2C189.801 192.2 239.901 173.5 240.701 169.2" stroke="black" stroke-width="1.75" stroke-miterlimit="10" stroke-linecap="round"/>
<path d="M306.1 189.5C306.1 189.5 283.1 176.8 276.4 175.5" stroke="black" stroke-width="1.75" stroke-miterlimit="10" stroke-linecap="round"/>
<path d="M342.701 178.6C342.701 178.6 328.801 185.2 293.801 182.5" stroke="black" stroke-width="1.75" stroke-miterlimit="10" stroke-linecap="round"/>
<path d="M253.6 83.4995L233.7 80.4995C233.7 80.4995 177.7 78.1995 162.7 90.8995C162.7 90.8995 144 106.6 126 106.6" stroke="black" stroke-width="1.75" stroke-miterlimit="10" stroke-linecap="round"/>
<path d="M121.801 66.5002C121.801 66.5002 134.801 55.8002 152.801 49.5002C170.801 43.2002 195.801 49.5002 195.801 49.5002C195.801 49.5002 217.501 56.2002 236.801 68.2002" stroke="black" stroke-width="1.75" stroke-miterlimit="10" stroke-linecap="round"/>
<path d="M335.4 64.9004H328.4C328.4 64.9004 322.7 62.9004 322.1 62.9004C321.4 62.9004 312.4 62.9004 312.4 62.9004C312.4 62.9004 307.1 60.9004 306.1 60.9004C305.1 60.9004 272.4 60.9004 272.4 60.9004C272.4 60.9004 249.1 62.6004 235.9 65.1004" stroke="black" stroke-width="2" stroke-miterlimit="10" stroke-linecap="round"/>
<path d="M264.301 95.8004C264.301 95.8004 302.101 83.9004 312.401 83.9004C322.701 83.9004 332.401 83.9004 332.401 83.9004C332.401 83.9004 358.701 85.7004 373.601 89.9004" stroke="black" stroke-width="2" stroke-miterlimit="10" stroke-linecap="round"/>
<path d="M385.4 105.9C385.4 105.9 366.7 95.7001 351.7 94.5001C336.7 93.3001 326.7 90.9001 313.7 92.9001C300.7 94.9001 273 101.6 266.4 103.6" stroke="black" stroke-width="1.75" stroke-miterlimit="10" stroke-linecap="round"/>
<path d="M269.401 144.9V148.9C269.401 148.9 258.101 159.9 257.101 159.9H250.601C249.201 159.9 247.801 160.3 246.601 161L241.701 163.9H190.501C190.501 163.9 162.001 161.4 143.301 148.1" stroke="black" stroke-width="2" stroke-miterlimit="10" stroke-linecap="round"/>
<path d="M64.6993 95.9004C64.6993 95.9004 60.0993 122.2 60.4993 127.6" stroke="black" stroke-width="1.75" stroke-miterlimit="10" stroke-linecap="round"/>
</svg>
