<svg width="117" height="34" viewBox="0 0 117 34" fill="none" xmlns="http://www.w3.org/2000/svg">
<path d="M116.35 30.0789C116.35 31.8908 114.861 33.3585 113.019 33.3585H3.98647C2.14507 33.3585 0.650391 31.8908 0.650391 30.0789V3.92534C0.650391 2.11429 2.14507 0.641479 3.98647 0.641479H113.018C114.861 0.641479 116.35 2.11429 116.35 3.92534L116.35 30.0789Z" fill="black"/>
<path d="M112.667 0.681061C114.673 0.681061 116.306 2.28225 116.306 4.25V29.75C116.306 31.7177 114.673 33.3189 112.667 33.3189H4.33333C2.327 33.3189 0.694416 31.7177 0.694416 29.75V4.25C0.694416 2.28225 2.327 0.681061 4.33333 0.681061H112.667ZM112.667 0H4.33333C1.95108 0 0 1.91356 0 4.25V29.75C0 32.0864 1.95108 34 4.33333 34H112.667C115.049 34 117 32.0864 117 29.75V4.25C117 1.91356 115.049 0 112.667 0Z" fill="#A6A6A6"/>
<path d="M26.1106 16.8164C26.0854 14.0768 28.3977 12.744 28.5034 12.682C27.1939 10.8094 25.1642 10.5536 24.4509 10.5332C22.7462 10.3572 21.0926 11.5336 20.2242 11.5336C19.3384 11.5336 18.0012 10.5502 16.5599 10.5791C14.7052 10.6071 12.9702 11.6603 12.0186 13.2957C10.0547 16.6302 11.5194 21.5305 13.4009 24.2258C14.3421 25.5459 15.4419 27.0198 16.8814 26.9679C18.2898 26.911 18.8158 26.0873 20.5154 26.0873C22.1993 26.0873 22.6933 26.9679 24.1614 26.9348C25.6729 26.911 26.6245 25.6088 27.5328 24.2768C28.6204 22.7638 29.0572 21.2738 29.0746 21.1973C29.039 21.1854 26.1392 20.0999 26.1106 16.8164Z" fill="white"/>
<path d="M23.3372 8.76007C24.0947 7.83102 24.613 6.56707 24.4691 5.28442C23.3728 5.33202 22.0017 6.02817 21.2122 6.93682C20.5136 7.73752 19.8896 9.04992 20.0508 10.2841C21.2824 10.3742 22.5468 9.67467 23.3372 8.76007Z" fill="white"/>
<path d="M42.511 8.50764C42.511 9.50809 42.2051 10.2612 41.5941 10.7669C41.0281 11.2336 40.2239 11.4673 39.1821 11.4673C38.6656 11.4673 38.2236 11.4452 37.8535 11.401V5.93469C38.3362 5.85819 38.8562 5.81909 39.4179 5.81909C40.4102 5.81909 41.1581 6.03074 41.6625 6.45404C42.2276 6.93259 42.511 7.61684 42.511 8.50764ZM41.5533 8.53229C41.5533 7.88374 41.3783 7.38649 41.0281 7.03969C40.678 6.69374 40.1667 6.52034 39.4933 6.52034C39.2073 6.52034 38.9637 6.53904 38.7618 6.57814V10.7338C38.8736 10.7508 39.0781 10.7584 39.3754 10.7584C40.0705 10.7584 40.6069 10.5689 40.9848 10.1898C41.3627 9.81069 41.5533 9.25819 41.5533 8.53229Z" fill="white"/>
<path d="M47.5893 9.38149C47.5893 9.99774 47.4099 10.5026 47.0511 10.8987C46.675 11.3059 46.1766 11.509 45.5544 11.509C44.9546 11.509 44.4771 11.3144 44.1209 10.9234C43.7656 10.5332 43.5879 10.0411 43.5879 9.44779C43.5879 8.82729 43.7708 8.31814 44.1382 7.92289C44.5057 7.52764 44.9997 7.32959 45.622 7.32959C46.2217 7.32959 46.7036 7.52424 47.0684 7.91439C47.4151 8.29349 47.5893 8.78309 47.5893 9.38149ZM46.6472 9.41039C46.6472 9.04064 46.5658 8.72359 46.4037 8.45924C46.213 8.13964 45.9418 7.97984 45.589 7.97984C45.2242 7.97984 44.9468 8.13964 44.7562 8.45924C44.5932 8.72359 44.5126 9.04574 44.5126 9.42654C44.5126 9.79629 44.5941 10.1133 44.7562 10.3777C44.9529 10.6973 45.2268 10.8571 45.5804 10.8571C45.927 10.8571 46.1992 10.6947 46.395 10.3692C46.5632 10.0997 46.6472 9.78014 46.6472 9.41039Z" fill="white"/>
<path d="M54.3978 7.41113L53.1195 11.418H52.2875L51.758 9.67808C51.6236 9.24373 51.5144 8.81193 51.4295 8.38353H51.413C51.3342 8.82383 51.225 9.25478 51.0846 9.67808L50.5221 11.418H49.6806L48.4785 7.41113H49.4119L49.8738 9.31598C49.9856 9.76648 50.0775 10.1957 50.1512 10.602H50.1676C50.2352 10.2671 50.347 9.84043 50.5048 9.32448L51.0846 7.41198H51.8247L52.3802 9.28368C52.5146 9.74013 52.6238 10.1796 52.7078 10.6029H52.733C52.7945 10.1906 52.8872 9.75118 53.0103 9.28368L53.506 7.41198H54.3978V7.41113Z" fill="white"/>
<path d="M59.1064 11.4181H58.1982V9.12308C58.1982 8.41588 57.9243 8.06228 57.3749 8.06228C57.1053 8.06228 56.8878 8.15918 56.7188 8.35383C56.5515 8.54848 56.4666 8.77798 56.4666 9.04063V11.4172H55.5583V8.55613C55.5583 8.20423 55.5471 7.82258 55.5254 7.40948H56.3236L56.3661 8.03593H56.3912C56.4969 7.84128 56.6547 7.68063 56.8618 7.55228C57.1079 7.40268 57.3835 7.32703 57.6851 7.32703C58.0665 7.32703 58.3837 7.44773 58.6359 7.68998C58.9496 7.98663 59.1064 8.42948 59.1064 9.01768V11.4181V11.4181Z" fill="white"/>
<path d="M61.6105 11.4181H60.7031V5.57263H61.6105V11.4181Z" fill="white"/>
<path d="M66.9584 9.38149C66.9584 9.99774 66.779 10.5026 66.4202 10.8987C66.0441 11.3059 65.5449 11.509 64.9235 11.509C64.3229 11.509 63.8454 11.3144 63.49 10.9234C63.1347 10.5332 62.957 10.0411 62.957 9.44779C62.957 8.82729 63.1399 8.31814 63.5074 7.92289C63.8748 7.52764 64.3688 7.32959 64.9902 7.32959C65.5908 7.32959 66.0718 7.52424 66.4376 7.91439C66.7842 8.29349 66.9584 8.78309 66.9584 9.38149ZM66.0155 9.41039C66.0155 9.04064 65.934 8.72359 65.772 8.45924C65.5822 8.13964 65.31 7.97984 64.9582 7.97984C64.5924 7.97984 64.3151 8.13964 64.1253 8.45924C63.9624 8.72359 63.8818 9.04574 63.8818 9.42654C63.8818 9.79629 63.9632 10.1133 64.1253 10.3777C64.322 10.6973 64.5959 10.8571 64.9495 10.8571C65.2962 10.8571 65.5674 10.6947 65.7633 10.3692C65.9323 10.0997 66.0155 9.78014 66.0155 9.41039Z" fill="white"/>
<path d="M71.354 11.4181H70.5385L70.4709 10.9565H70.4457C70.1667 11.3246 69.7689 11.509 69.2523 11.509C68.8667 11.509 68.5547 11.3875 68.3198 11.1461C68.1066 10.9268 68 10.6539 68 10.3301C68 9.84049 68.208 9.46734 68.6266 9.20894C69.0443 8.95054 69.6319 8.82389 70.3885 8.82984V8.75504C70.3885 8.22719 70.106 7.96369 69.5401 7.96369C69.1371 7.96369 68.7817 8.06314 68.4749 8.26034L68.2903 7.67554C68.6699 7.44519 69.1388 7.32959 69.6917 7.32959C70.7595 7.32959 71.2951 7.88209 71.2951 8.98709V10.4627C71.2951 10.863 71.315 11.1818 71.354 11.4181ZM70.4111 10.0411V9.42314C69.4092 9.40614 68.9083 9.67559 68.9083 10.2306C68.9083 10.4397 68.9655 10.5961 69.0825 10.7007C69.1995 10.8052 69.3485 10.8571 69.5262 10.8571C69.7255 10.8571 69.9119 10.795 70.0817 10.6718C70.2525 10.5477 70.3573 10.3904 70.3963 10.1975C70.4059 10.1541 70.4111 10.1014 70.4111 10.0411Z" fill="white"/>
<path d="M76.5152 11.4181H75.7092L75.6668 10.7746H75.6416C75.3842 11.2642 74.9457 11.509 74.3295 11.509C73.8372 11.509 73.4273 11.3195 73.1023 10.9404C72.7773 10.5613 72.6152 10.0691 72.6152 9.46478C72.6152 8.81623 72.7912 8.29093 73.1448 7.88973C73.4871 7.51573 73.9066 7.32873 74.4058 7.32873C74.9544 7.32873 75.3383 7.50978 75.5567 7.87273H75.574V5.57263H76.4832V10.3386C76.4832 10.7287 76.4936 11.0883 76.5152 11.4181ZM75.574 9.72828V9.06018C75.574 8.94458 75.5654 8.85108 75.5489 8.77968C75.4978 8.56548 75.3877 8.38528 75.2204 8.23993C75.0514 8.09458 74.8478 8.02148 74.6129 8.02148C74.274 8.02148 74.0088 8.15323 73.8138 8.41758C73.6206 8.68193 73.5226 9.01938 73.5226 9.43163C73.5226 9.82773 73.6154 10.149 73.8017 10.3964C73.9984 10.6599 74.2636 10.7916 74.5956 10.7916C74.8937 10.7916 75.132 10.682 75.3132 10.4618C75.4882 10.2587 75.574 10.0139 75.574 9.72828Z" fill="white"/>
<path d="M84.2826 9.38149C84.2826 9.99774 84.1032 10.5026 83.7444 10.8987C83.3683 11.3059 82.8708 11.509 82.2477 11.509C81.6489 11.509 81.1713 11.3144 80.8143 10.9234C80.4589 10.5332 80.2812 10.0411 80.2812 9.44779C80.2812 8.82729 80.4641 8.31814 80.8316 7.92289C81.1991 7.52764 81.693 7.32959 82.3162 7.32959C82.915 7.32959 83.3978 7.52424 83.7618 7.91439C84.1084 8.29349 84.2826 8.78309 84.2826 9.38149ZM83.3414 9.41039C83.3414 9.04064 83.26 8.72359 83.0979 8.45924C82.9064 8.13964 82.636 7.97984 82.2824 7.97984C81.9184 7.97984 81.641 8.13964 81.4495 8.45924C81.2866 8.72359 81.206 9.04574 81.206 9.42654C81.206 9.79629 81.2874 10.1133 81.4495 10.3777C81.6462 10.6973 81.9201 10.8571 82.2737 10.8571C82.6204 10.8571 82.8934 10.6947 83.0892 10.3692C83.2565 10.0997 83.3414 9.78014 83.3414 9.41039Z" fill="white"/>
<path d="M89.1661 11.4181H88.2587V9.12308C88.2587 8.41588 87.9849 8.06228 87.4345 8.06228C87.165 8.06228 86.9475 8.15918 86.7793 8.35383C86.6112 8.54848 86.5271 8.77798 86.5271 9.04063V11.4172H85.618V8.55613C85.618 8.20423 85.6076 7.82258 85.5859 7.40948H86.3833L86.4257 8.03593H86.4509C86.5575 7.84128 86.7152 7.68063 86.9215 7.55228C87.1685 7.40268 87.4432 7.32703 87.7457 7.32703C88.1261 7.32703 88.4433 7.44773 88.6955 7.68998C89.0101 7.98663 89.1661 8.42948 89.1661 9.01768V11.4181V11.4181Z" fill="white"/>
<path d="M95.2792 8.07848H94.2791V10.025C94.2791 10.5197 94.4567 10.767 94.8086 10.767C94.9715 10.767 95.1067 10.7534 95.2133 10.7254L95.2367 11.4011C95.0573 11.4674 94.8216 11.5006 94.5313 11.5006C94.1725 11.5006 93.8934 11.3935 93.6915 11.1793C93.4887 10.9651 93.3881 10.6047 93.3881 10.0989V8.07848H92.791V7.41123H93.3881V6.67683L94.2782 6.41333V7.41038H95.2783V8.07848H95.2792Z" fill="white"/>
<path d="M100.087 11.4181H99.1781V9.14008C99.1781 8.42183 98.9042 8.06228 98.3556 8.06228C97.9344 8.06228 97.6467 8.27053 97.4889 8.68703C97.4621 8.77458 97.4465 8.88168 97.4465 9.00748V11.4172H96.5391V5.57263H97.4465V7.98748H97.4638C97.7498 7.54803 98.1597 7.32873 98.691 7.32873C99.0671 7.32873 99.3783 7.44943 99.6253 7.69168C99.9329 7.99343 100.087 8.44223 100.087 9.03553V11.4181V11.4181Z" fill="white"/>
<path d="M105.046 9.22505C105.046 9.38485 105.034 9.51915 105.012 9.6288H102.289C102.301 10.0249 102.431 10.3266 102.683 10.5357C102.913 10.7227 103.211 10.8162 103.575 10.8162C103.978 10.8162 104.345 10.7533 104.676 10.6267L104.818 11.2455C104.431 11.4104 103.975 11.4928 103.447 11.4928C102.815 11.4928 102.316 11.3101 101.956 10.9446C101.593 10.5791 101.414 10.0886 101.414 9.47325C101.414 8.8689 101.581 8.3657 101.918 7.9645C102.27 7.5361 102.746 7.3219 103.347 7.3219C103.934 7.3219 104.381 7.5361 104.682 7.9645C104.926 8.3045 105.046 8.72525 105.046 9.22505ZM104.18 8.9947C104.187 8.73035 104.127 8.50255 104.004 8.31045C103.846 8.0631 103.606 7.939 103.281 7.939C102.984 7.939 102.743 8.0597 102.558 8.30195C102.407 8.4949 102.318 8.72525 102.289 8.9947H104.18Z" fill="white"/>
<path d="M46.4929 26.7785H44.5247L43.4465 23.4558H39.6991L38.6721 26.7785H36.7559L40.4687 15.4667H42.7619L46.4929 26.7785ZM43.1215 22.0618L42.1465 19.1081C42.0434 18.8063 41.8501 18.0957 41.565 16.9771H41.5303C41.4168 17.4582 41.2339 18.1688 40.9826 19.1081L40.0249 22.0618H43.1215V22.0618Z" fill="white"/>
<path d="M56.0401 22.5999C56.0401 23.9871 55.6579 25.0836 54.8935 25.8886C54.2089 26.6051 53.3586 26.963 52.3438 26.963C51.2483 26.963 50.4614 26.5771 49.9821 25.8053H49.9474V30.102H48.0997V21.3071C48.0997 20.435 48.0763 19.5399 48.0312 18.6219H49.6563L49.7594 19.9148H49.7941C50.4103 18.9407 51.3454 18.4545 52.6003 18.4545C53.5814 18.4545 54.4004 18.8344 55.0556 19.5952C55.7125 20.3568 56.0401 21.3581 56.0401 22.5999ZM54.1577 22.6662C54.1577 21.8723 53.9757 21.2178 53.61 20.7027C53.2105 20.1655 52.674 19.8969 52.0014 19.8969C51.5456 19.8969 51.1313 20.0465 50.7612 20.3415C50.3903 20.639 50.1476 21.0274 50.0341 21.5085C49.9769 21.7329 49.9483 21.9165 49.9483 22.061V23.421C49.9483 24.0143 50.1338 24.515 50.5047 24.9238C50.8757 25.3327 51.3575 25.5367 51.9503 25.5367C52.6463 25.5367 53.1879 25.2732 53.5753 24.7479C53.9636 24.2217 54.1577 23.5281 54.1577 22.6662Z" fill="white"/>
<path d="M65.6057 22.5999C65.6057 23.9871 65.2235 25.0836 64.4582 25.8886C63.7744 26.6051 62.9242 26.963 61.9093 26.963C60.8139 26.963 60.0269 26.5771 59.5485 25.8053H59.5139V30.102H57.6661V21.3071C57.6661 20.435 57.6427 19.5399 57.5977 18.6219H59.2227L59.3258 19.9148H59.3605C59.9758 18.9407 60.9109 18.4545 62.1667 18.4545C63.1469 18.4545 63.9659 18.8344 64.6229 19.5952C65.2772 20.3568 65.6057 21.3581 65.6057 22.5999ZM63.7233 22.6662C63.7233 21.8723 63.5404 21.2178 63.1747 20.7027C62.7751 20.1655 62.2404 19.8969 61.567 19.8969C61.1103 19.8969 60.6969 20.0465 60.3259 20.3415C59.955 20.639 59.7132 21.0274 59.5997 21.5085C59.5433 21.7329 59.5139 21.9165 59.5139 22.061V23.421C59.5139 24.0143 59.6993 24.515 60.0685 24.9238C60.4395 25.3318 60.9213 25.5367 61.5159 25.5367C62.2118 25.5367 62.7535 25.2732 63.1409 24.7479C63.5291 24.2217 63.7233 23.5281 63.7233 22.6662Z" fill="white"/>
<path d="M76.3017 23.6063C76.3017 24.5685 75.9611 25.3513 75.2773 25.9557C74.5259 26.6161 73.4798 26.9459 72.1356 26.9459C70.8946 26.9459 69.8996 26.7113 69.1465 26.2413L69.5746 24.7308C70.3858 25.2119 71.2759 25.4533 72.2457 25.4533C72.9416 25.4533 73.4833 25.2986 73.8724 24.9909C74.2598 24.6832 74.4531 24.2701 74.4531 23.755C74.4531 23.296 74.2936 22.9093 73.9738 22.5956C73.6557 22.282 73.1245 21.9904 72.3826 21.721C70.3633 20.9823 69.3545 19.9003 69.3545 18.4774C69.3545 17.5475 69.7081 16.785 70.4162 16.1917C71.1216 15.5976 72.0628 15.3009 73.2397 15.3009C74.2893 15.3009 75.1611 15.4803 75.8571 15.8381L75.3951 17.3154C74.7451 16.9686 74.0102 16.7952 73.1877 16.7952C72.5377 16.7952 72.0299 16.9525 71.6659 17.2653C71.3582 17.5449 71.2039 17.8858 71.2039 18.2895C71.2039 18.7366 71.3799 19.1064 71.7335 19.3971C72.0411 19.6657 72.6002 19.9564 73.4114 20.27C74.4037 20.6619 75.1326 21.12 75.6014 21.6453C76.0685 22.1689 76.3017 22.8243 76.3017 23.6063Z" fill="white"/>
<path d="M82.4105 19.9818H80.3738V23.942C80.3738 24.9492 80.7326 25.4524 81.452 25.4524C81.7822 25.4524 82.056 25.4244 82.2727 25.3683L82.3238 26.7444C81.9598 26.8779 81.4806 26.945 80.8869 26.945C80.1572 26.945 79.5869 26.7266 79.1752 26.2905C78.7653 25.8536 78.559 25.1209 78.559 24.0916V19.9801H77.3457V18.6201H78.559V17.1267L80.3738 16.5895V18.6201H82.4105V19.9818Z" fill="white"/>
<path d="M91.5989 22.633C91.5989 23.8867 91.2332 24.9161 90.5035 25.721C89.7382 26.5498 88.7225 26.9629 87.4563 26.9629C86.236 26.9629 85.2645 26.5659 84.5399 25.772C83.8154 24.9781 83.4531 23.9759 83.4531 22.7681C83.4531 21.5041 83.8258 20.4689 84.5737 19.6639C85.3199 18.8581 86.327 18.4552 87.5932 18.4552C88.8135 18.4552 89.7954 18.8522 90.5364 19.6469C91.2453 20.4179 91.5989 21.4132 91.5989 22.633ZM89.6819 22.6916C89.6819 21.9393 89.5181 21.2942 89.1861 20.7562C88.7987 20.1051 88.2449 19.7804 87.5273 19.7804C86.7846 19.7804 86.2204 20.1059 85.833 20.7562C85.5011 21.2951 85.3373 21.9504 85.3373 22.7256C85.3373 23.4779 85.5011 24.123 85.833 24.6602C86.2325 25.3113 86.7907 25.636 87.5109 25.636C88.2163 25.636 88.7701 25.3045 89.1697 24.6432C89.5103 24.095 89.6819 23.443 89.6819 22.6916Z" fill="white"/>
<path d="M97.6057 20.2157C97.4229 20.1825 97.2279 20.1655 97.0233 20.1655C96.3733 20.1655 95.8707 20.4061 95.5171 20.888C95.2094 21.313 95.0551 21.8502 95.0551 22.4988V26.7785H93.2082L93.2256 21.1906C93.2256 20.2505 93.2022 19.3946 93.1562 18.6228H94.7657L94.8333 20.1834H94.8844C95.0794 19.647 95.3871 19.2152 95.8083 18.8914C96.2199 18.5998 96.6645 18.4545 97.1438 18.4545C97.3145 18.4545 97.4688 18.4664 97.6057 18.4876V20.2157Z" fill="white"/>
<path d="M105.869 22.3142C105.869 22.6389 105.848 22.9126 105.802 23.1362H100.259C100.28 23.942 100.548 24.5582 101.063 24.9832C101.53 25.3632 102.134 25.5536 102.876 25.5536C103.697 25.5536 104.446 25.4252 105.119 25.1677L105.408 26.4257C104.621 26.7623 103.692 26.9297 102.62 26.9297C101.331 26.9297 100.318 26.5574 99.5818 25.8137C98.8469 25.0699 98.4785 24.0712 98.4785 22.8183C98.4785 21.5883 98.8209 20.5641 99.5064 19.7472C100.224 18.8751 101.194 18.4391 102.414 18.4391C103.613 18.4391 104.52 18.8751 105.136 19.7472C105.624 20.44 105.869 21.2968 105.869 22.3142ZM104.108 21.8442C104.12 21.307 103.999 20.8429 103.749 20.451C103.429 19.947 102.938 19.6954 102.276 19.6954C101.672 19.6954 101.181 19.941 100.806 20.434C100.498 20.8259 100.315 21.2959 100.259 21.8433H104.108V21.8442Z" fill="white"/>
</svg>
