<svg width="117" height="34" viewBox="0 0 117 34" fill="none" xmlns="http://www.w3.org/2000/svg">
<path d="M112.667 34H4.33333C1.95108 34 0 32.0864 0 29.75V4.25C0 1.91356 1.95108 1.43051e-06 4.33333 1.43051e-06H112.667C115.049 1.43051e-06 117 1.91356 117 4.25V29.75C117 32.0864 115.049 34 112.667 34Z" fill="black"/>
<path d="M112.667 0.681063C114.673 0.681063 116.306 2.28225 116.306 4.25V29.75C116.306 31.7178 114.673 33.3189 112.667 33.3189H4.33333C2.327 33.3189 0.694416 31.7178 0.694416 29.75V4.25C0.694416 2.28225 2.327 0.681063 4.33333 0.681063H112.667ZM112.667 1.43051e-06H4.33333C1.95108 1.43051e-06 0 1.91356 0 4.25V29.75C0 32.0864 1.95108 34 4.33333 34H112.667C115.049 34 117 32.0864 117 29.75V4.25C117 1.91356 115.049 1.43051e-06 112.667 1.43051e-06Z" fill="#A6A6A6"/>
<path d="M8.3941 6.40793C8.13952 6.66931 7.99219 7.07624 7.99219 7.60324V26.401C7.99219 26.928 8.13952 27.3349 8.3941 27.5963L8.45694 27.6537L19.1971 17.1243V16.8757L8.45694 6.34631L8.3941 6.40793Z" fill="white"/>
<path d="M24.0722 20.6359L20.4961 17.1243V16.8757L24.0765 13.3641L24.1567 13.4098L28.3968 15.776C29.6069 16.4475 29.6069 17.5525 28.3968 18.2282L24.1567 20.5902L24.0722 20.6359V20.6359Z" fill="white"/>
<path d="M23.5085 21.244L19.8479 17.6538L9.04492 28.2502C9.44684 28.6645 10.1023 28.7145 10.8476 28.3001L23.5085 21.244" fill="white"/>
<path d="M23.5085 12.756L10.8476 5.69994C10.1023 5.28982 9.44684 5.33975 9.04492 5.75413L19.8479 16.3462L23.5085 12.756Z" fill="white"/>
<path d="M41.0942 8.70726C41.0942 9.41701 40.8776 9.98545 40.4507 10.4094C39.96 10.912 39.3208 11.1648 38.5376 11.1648C37.789 11.1648 37.1498 10.9077 36.6255 10.4009C36.1001 9.88664 35.8379 9.25551 35.8379 8.50008C35.8379 7.74464 36.1001 7.11351 36.6255 6.60351C37.1498 6.09245 37.789 5.83533 38.5376 5.83533C38.9102 5.83533 39.2656 5.91076 39.6046 6.05101C39.9426 6.19233 40.2178 6.38358 40.4171 6.61945L39.9643 7.06783C39.6166 6.66514 39.1431 6.46645 38.5376 6.46645C37.9916 6.46645 37.5181 6.65345 37.1162 7.03064C36.7186 7.40889 36.5193 7.8987 36.5193 8.50008C36.5193 9.10145 36.7186 9.59551 37.1162 9.97376C37.5181 10.3467 37.9916 10.5379 38.5376 10.5379C39.1171 10.5379 39.6046 10.3467 39.9892 9.96951C40.2427 9.71982 40.3868 9.37558 40.4247 8.9357H38.5376V8.32158H41.0552C41.0856 8.45439 41.0942 8.58295 41.0942 8.70726V8.70726Z" fill="white" stroke="white" stroke-width="0.16" stroke-miterlimit="10"/>
<path d="M45.0891 6.57796H42.7242V8.19296H44.8562V8.80708H42.7242V10.4221H45.0891V11.0479H42.0547V5.95215H45.0891V6.57796Z" fill="white" stroke="white" stroke-width="0.16" stroke-miterlimit="10"/>
<path d="M47.9072 11.0479H47.2377V6.57796H45.7871V5.95215H49.3589V6.57796H47.9072V11.0479V11.0479Z" fill="white" stroke="white" stroke-width="0.16" stroke-miterlimit="10"/>
<path d="M51.9434 11.0479V5.95215H52.6118V11.0479H51.9434Z" fill="white" stroke="white" stroke-width="0.16" stroke-miterlimit="10"/>
<path d="M55.5752 11.0479H54.9111V6.57796H53.4551V5.95215H57.0312V6.57796H55.5752V11.0479Z" fill="white" stroke="white" stroke-width="0.16" stroke-miterlimit="10"/>
<path d="M63.7941 10.3924C63.2817 10.9077 62.6468 11.1648 61.8896 11.1648C61.128 11.1648 60.4932 10.9077 59.9808 10.3924C59.4694 9.87814 59.2148 9.24701 59.2148 8.50008C59.2148 7.75314 59.4694 7.12201 59.9808 6.60776C60.4932 6.09245 61.128 5.83533 61.8896 5.83533C62.6425 5.83533 63.2774 6.09245 63.7898 6.61201C64.3054 7.13051 64.56 7.75739 64.56 8.50008C64.56 9.24701 64.3054 9.87814 63.7941 10.3924ZM60.4758 9.96526C60.8615 10.3467 61.3306 10.5379 61.8896 10.5379C62.4443 10.5379 62.9177 10.3467 63.299 9.96526C63.6836 9.58383 63.8786 9.09401 63.8786 8.50008C63.8786 7.90614 63.6836 7.41633 63.299 7.03489C62.9177 6.65345 62.4443 6.4622 61.8896 6.4622C61.3306 6.4622 60.8615 6.65345 60.4758 7.03489C60.0913 7.41633 59.8963 7.90614 59.8963 8.50008C59.8963 9.09401 60.0913 9.58383 60.4758 9.96526V9.96526Z" fill="white" stroke="white" stroke-width="0.16" stroke-miterlimit="10"/>
<path d="M65.498 11.0479V5.95215H66.3105L68.8369 9.91527H68.8661L68.8369 8.93565V5.95215H69.5053V11.0479H68.8076L66.1621 6.88927H66.1329L66.1621 7.87315V11.0479H65.498V11.0479Z" fill="white" stroke="white" stroke-width="0.16" stroke-miterlimit="10"/>
<path d="M59.0507 18.4897C57.0151 18.4897 55.3522 20.0091 55.3522 22.1054C55.3522 24.1847 57.0151 25.72 59.0507 25.72C61.0906 25.72 62.7535 24.1847 62.7535 22.1054C62.7535 20.0091 61.0906 18.4897 59.0507 18.4897ZM59.0507 24.2963C57.9338 24.2963 56.9729 23.3921 56.9729 22.1054C56.9729 20.8017 57.9338 19.9134 59.0507 19.9134C60.1676 19.9134 61.1329 20.8017 61.1329 22.1054C61.1329 23.3921 60.1676 24.2963 59.0507 24.2963V24.2963ZM50.9809 18.4897C48.941 18.4897 47.2824 20.0091 47.2824 22.1054C47.2824 24.1847 48.941 25.72 50.9809 25.72C53.0198 25.72 54.6794 24.1847 54.6794 22.1054C54.6794 20.0091 53.0198 18.4897 50.9809 18.4897ZM50.9809 24.2963C49.8629 24.2963 48.8988 23.3921 48.8988 22.1054C48.8988 20.8017 49.8629 19.9134 50.9809 19.9134C52.0979 19.9134 53.0588 20.8017 53.0588 22.1054C53.0588 23.3921 52.0979 24.2963 50.9809 24.2963ZM41.3783 19.5979V21.1343H45.119C45.0096 21.9928 44.7171 22.6239 44.2686 23.0638C43.7226 23.595 42.8722 24.1847 41.3783 24.1847C39.0762 24.1847 37.2735 22.3625 37.2735 20.1047C37.2735 17.8469 39.0762 16.0247 41.3783 16.0247C42.623 16.0247 43.5287 16.5018 44.1971 17.1201L45.301 16.0374C44.3661 15.1619 43.1224 14.4894 41.3783 14.4894C38.2214 14.4894 35.5684 17.0086 35.5684 20.1047C35.5684 23.2008 38.2214 25.72 41.3783 25.72C43.0845 25.72 44.3661 25.1718 45.3736 24.1433C46.406 23.1307 46.7278 21.7069 46.7278 20.5573C46.7278 20.2003 46.6974 19.872 46.6433 19.5979H41.3783ZM80.6448 20.7889C80.3403 19.9804 79.4011 18.4897 77.4879 18.4897C75.5921 18.4897 74.0137 19.9549 74.0137 22.1054C74.0137 24.1305 75.5758 25.72 77.6699 25.72C79.3632 25.72 80.3403 24.7074 80.7423 24.1178L79.4856 23.2964C79.0663 23.8978 78.4954 24.2963 77.6699 24.2963C76.8498 24.2963 76.2616 23.9276 75.8846 23.2008L80.8148 21.2001L80.6448 20.7889V20.7889ZM75.6181 21.9928C75.5758 20.5988 76.722 19.8848 77.5432 19.8848C78.1867 19.8848 78.7327 20.2003 78.9147 20.6519L75.6181 21.9928V21.9928ZM71.6108 25.5001H73.2315V14.8751H71.6108V25.5001ZM68.9567 19.2951H68.9025C68.5385 18.8722 67.8441 18.4897 66.9644 18.4897C65.1184 18.4897 63.4306 20.0792 63.4306 22.1171C63.4306 24.1433 65.1184 25.72 66.9644 25.72C67.8441 25.72 68.5385 25.3343 68.9025 24.8987H68.9567V25.4172C68.9567 26.7995 68.2038 27.5422 66.9893 27.5422C65.9992 27.5422 65.3849 26.8409 65.1314 26.2513L63.722 26.8282C64.1283 27.7866 65.204 28.9659 66.9893 28.9659C68.8895 28.9659 70.4928 27.8694 70.4928 25.2015V18.7096H68.9567V19.2951V19.2951ZM67.1031 24.2963C65.9862 24.2963 65.0513 23.3793 65.0513 22.1171C65.0513 20.8431 65.9862 19.9134 67.1031 19.9134C68.2038 19.9134 69.0715 20.8431 69.0715 22.1171C69.0715 23.3793 68.2038 24.2963 67.1031 24.2963V24.2963ZM88.2324 14.8751H84.3563V25.5001H85.9726V21.4743H88.2324C90.0275 21.4743 91.7879 20.2003 91.7879 18.1741C91.7879 16.149 90.0232 14.8751 88.2324 14.8751V14.8751ZM88.2747 19.9963H85.9726V16.353H88.2747C89.4815 16.353 90.1705 17.3358 90.1705 18.1741C90.1705 18.9965 89.4815 19.9963 88.2747 19.9963ZM98.2663 18.4695C97.0984 18.4695 95.884 18.9753 95.3846 20.0962L96.8189 20.6859C97.1277 20.0962 97.6953 19.9049 98.2955 19.9049C99.134 19.9049 99.9844 20.399 99.9974 21.2713V21.3829C99.7049 21.2171 99.0788 20.9717 98.3085 20.9717C96.7637 20.9717 95.1896 21.8058 95.1896 23.3623C95.1896 24.7861 96.4549 25.703 97.8773 25.703C98.965 25.703 99.5652 25.2217 99.9422 24.6618H99.9974V25.4831H101.559V21.4073C101.559 19.5235 100.124 18.4695 98.2663 18.4695ZM98.0713 24.292C97.5426 24.292 96.8059 24.0349 96.8059 23.3921C96.8059 22.5697 97.7246 22.2541 98.5198 22.2541C99.2315 22.2541 99.5652 22.4082 99.9974 22.6111C99.8707 23.595 99.0073 24.292 98.0713 24.292V24.292ZM107.246 18.7022L105.388 23.3081H105.333L103.412 18.7022H101.669L104.555 25.1388L102.908 28.7205H104.597L109.044 18.7022H107.246V18.7022ZM92.6763 25.5001H94.2969V14.8751H92.6763V25.5001Z" fill="white"/>
</svg>
