<svg width="1920" height="3248" viewBox="0 0 1920 3248" fill="none" xmlns="http://www.w3.org/2000/svg">
<g clip-path="url(#clip0_930_4006)">
<path d="M1175.31 64.0031C1129.4 178.937 1138.08 250.996 1201.35 280.178C1296.25 323.952 1521.9 341.461 1616.23 436.417C1710.54 531.371 1998.14 457.965 2047.33 294.993C2096.51 132.021 2185.07 -119.172 1718.09 -119.172C1406.77 -119.172 1225.84 -58.1151 1175.31 64.0031Z" fill="#FFFA72"/>
<path d="M410.859 290.933C282.319 612.749 306.628 814.512 483.771 896.223C749.493 1018.79 1381.33 1067.81 1645.43 1333.69C1909.53 1599.56 2714.79 1394.03 2852.51 937.704C2990.23 481.382 3238.2 -221.958 1930.66 -221.958C1058.96 -221.958 552.365 -50.9982 410.859 290.933Z" fill="#C7E1F3"/>
<path d="M474.565 272.022C352.911 576.598 375.917 767.552 543.571 844.886C795.058 960.885 1393.04 1007.28 1643 1258.92C1892.95 1510.55 2655.07 1316.02 2785.42 884.144C2915.76 452.269 3150.44 -213.393 1912.95 -213.393C1087.94 -213.393 608.49 -51.5914 474.565 272.022Z" fill="#B8CFE6"/>
<path d="M538.269 253.111C423.501 540.447 445.204 720.593 603.368 793.549C840.62 902.982 1404.76 946.755 1640.56 1184.15C1876.36 1421.53 2595.35 1238.02 2718.32 830.585C2841.28 423.155 3062.68 -204.828 1895.23 -204.828C1116.93 -204.828 664.613 -52.1845 538.269 253.111Z" fill="#A9BEDA"/>
<path d="M601.972 234.2C494.09 504.296 514.492 673.633 663.166 742.212C886.183 845.079 1416.47 886.226 1638.13 1109.37C1859.78 1332.52 2535.63 1160.01 2651.22 777.026C2766.8 394.042 2974.92 -196.262 1877.52 -196.262C1145.91 -196.262 720.736 -52.7774 601.972 234.2Z" fill="#9AADCE"/>
<path d="M665.676 215.289C564.68 468.145 583.779 626.673 722.964 690.874C931.745 787.176 1428.19 825.696 1635.7 1034.6C1843.2 1243.5 2475.91 1082.01 2584.12 723.467C2692.33 364.928 2887.15 -187.697 1859.8 -187.697C1174.9 -187.697 776.859 -53.3706 665.676 215.289Z" fill="#8B9BC1"/>
<path d="M729.379 196.379C635.27 431.994 653.067 579.714 782.761 639.537C977.308 729.273 1439.9 765.167 1633.26 959.827C1826.62 1154.48 2416.19 1004 2517.02 669.907C2617.85 335.815 2799.39 -179.131 1842.09 -179.131C1203.88 -179.131 832.982 -53.9638 729.379 196.379Z" fill="#7D8AB5"/>
<path d="M793.083 177.468C705.859 395.843 722.354 532.754 842.559 588.201C1022.87 671.37 1451.61 704.637 1630.83 885.054C1810.04 1065.47 2356.47 925.995 2449.92 616.348C2543.37 306.701 2711.63 -170.565 1824.38 -170.565C1232.86 -170.565 889.104 -54.5567 793.083 177.468Z" fill="#6E79A9"/>
<path d="M856.789 158.557C776.451 359.692 791.644 485.794 902.359 536.863C1068.43 613.467 1463.33 644.108 1628.4 810.281C1793.46 976.451 2296.75 847.99 2382.82 562.789C2468.9 277.588 2623.87 -162 1806.66 -162C1261.85 -162 945.229 -55.1498 856.789 158.557Z" fill="#5F679C"/>
<path d="M920.492 139.646C847.041 323.541 860.931 438.834 962.156 485.526C1114 555.564 1475.04 583.578 1625.96 735.508C1776.87 887.435 2237.03 769.985 2315.72 509.23C2394.42 248.474 2536.11 -153.435 1788.95 -153.435C1290.83 -153.435 1001.35 -55.743 920.492 139.646Z" fill="#505690"/>
<path d="M984.196 120.736C917.63 287.39 930.219 391.875 1021.95 434.189C1159.56 497.661 1486.76 523.049 1623.53 660.736C1760.29 798.419 2177.3 691.98 2248.62 455.671C2319.94 219.361 2448.35 -144.869 1771.23 -144.869C1319.82 -144.869 1057.48 -56.3359 984.196 120.736Z" fill="#414584"/>
<path d="M1047.9 101.825C988.22 251.239 999.506 344.915 1081.75 382.852C1205.12 439.758 1498.47 462.519 1621.09 585.963C1743.71 709.403 2117.58 613.975 2181.52 402.111C2245.47 190.248 2360.59 -136.303 1753.52 -136.303C1348.8 -136.303 1113.6 -56.9291 1047.9 101.825Z" fill="#323377"/>
<path d="M1111.6 82.9137C1058.81 215.088 1068.79 297.955 1141.55 331.515C1250.68 381.855 1510.19 401.99 1618.66 511.19C1727.13 620.387 2057.86 535.97 2114.43 348.552C2170.99 161.134 2272.83 -127.738 1735.81 -127.738C1377.79 -127.738 1169.72 -57.5222 1111.6 82.9137Z" fill="#23226B"/>
<path d="M410.859 290.933C282.319 612.749 306.628 814.512 483.771 896.223C749.493 1018.79 1381.33 1067.81 1645.43 1333.69C1909.53 1599.56 2714.79 1394.03 2852.51 937.704C2990.23 481.382 3238.2 -221.958 1930.66 -221.958C1058.96 -221.958 552.365 -50.9982 410.859 290.933Z" fill="#D6F2FF"/>
<path d="M474.565 272.022C352.911 576.598 375.917 767.552 543.571 844.886C795.058 960.885 1393.04 1007.28 1643 1258.92C1892.95 1510.55 2655.07 1316.02 2785.42 884.144C2915.76 452.269 3150.44 -213.393 1912.95 -213.393C1087.94 -213.393 608.49 -51.5914 474.565 272.022Z" fill="#C7E1F3"/>
<path d="M538.269 253.111C423.501 540.447 445.204 720.593 603.368 793.549C840.62 902.982 1404.76 946.755 1640.56 1184.15C1876.36 1421.53 2595.35 1238.02 2718.32 830.585C2841.28 423.155 3062.68 -204.828 1895.23 -204.828C1116.93 -204.828 664.613 -52.1845 538.269 253.111Z" fill="#B8CFE6"/>
<path d="M601.972 234.2C494.09 504.296 514.492 673.633 663.166 742.212C886.183 845.079 1416.47 886.226 1638.13 1109.37C1859.78 1332.52 2535.63 1160.01 2651.22 777.026C2766.8 394.042 2974.92 -196.262 1877.52 -196.262C1145.91 -196.262 720.736 -52.7774 601.972 234.2Z" fill="#A9BEDA"/>
<path d="M665.676 215.289C564.68 468.145 583.779 626.673 722.964 690.874C931.745 787.176 1428.19 825.696 1635.7 1034.6C1843.2 1243.5 2475.91 1082.01 2584.12 723.467C2692.33 364.928 2887.15 -187.697 1859.8 -187.697C1174.9 -187.697 776.859 -53.3706 665.676 215.289Z" fill="#9AADCE"/>
<path d="M729.379 196.379C635.27 431.994 653.067 579.714 782.761 639.537C977.308 729.273 1439.9 765.167 1633.26 959.827C1826.62 1154.48 2416.19 1004 2517.02 669.907C2617.85 335.815 2799.39 -179.131 1842.09 -179.131C1203.88 -179.131 832.982 -53.9638 729.379 196.379Z" fill="#8B9BC1"/>
<path d="M793.083 177.468C705.859 395.843 722.354 532.754 842.559 588.201C1022.87 671.37 1451.61 704.637 1630.83 885.054C1810.04 1065.47 2356.47 925.995 2449.92 616.348C2543.37 306.701 2711.63 -170.565 1824.38 -170.565C1232.86 -170.565 889.104 -54.5567 793.083 177.468Z" fill="#7D8AB5"/>
<path d="M856.789 158.557C776.451 359.692 791.644 485.794 902.359 536.863C1068.43 613.467 1463.33 644.108 1628.4 810.281C1793.46 976.451 2296.75 847.99 2382.82 562.789C2468.9 277.588 2623.87 -162 1806.66 -162C1261.85 -162 945.229 -55.1498 856.789 158.557Z" fill="#6E79A9"/>
<path d="M920.492 139.646C847.041 323.541 860.931 438.834 962.156 485.526C1114 555.564 1475.04 583.578 1625.96 735.508C1776.87 887.435 2237.03 769.985 2315.72 509.23C2394.42 248.474 2536.11 -153.435 1788.95 -153.435C1290.83 -153.435 1001.35 -55.743 920.492 139.646Z" fill="#5F679C"/>
<path d="M984.196 120.736C917.63 287.39 930.219 391.875 1021.95 434.189C1159.56 497.661 1486.76 523.049 1623.53 660.736C1760.29 798.419 2177.3 691.98 2248.62 455.671C2319.94 219.361 2448.35 -144.869 1771.23 -144.869C1319.82 -144.869 1057.48 -56.3359 984.196 120.736Z" fill="#505690"/>
<path d="M1047.9 101.825C988.22 251.239 999.506 344.915 1081.75 382.852C1205.12 439.758 1498.47 462.519 1621.09 585.963C1743.71 709.403 2117.58 613.975 2181.52 402.111C2245.47 190.248 2360.59 -136.303 1753.52 -136.303C1348.8 -136.303 1113.6 -56.9291 1047.9 101.825Z" fill="#414584"/>
<path d="M1111.6 82.9137C1058.81 215.088 1068.79 297.955 1141.55 331.515C1250.68 381.855 1510.19 401.99 1618.66 511.19C1727.13 620.387 2057.86 535.97 2114.43 348.552C2170.99 161.134 2272.83 -127.738 1735.81 -127.738C1377.79 -127.738 1169.72 -57.5222 1111.6 82.9137Z" fill="#323377"/>
<path d="M410.859 290.933C282.319 612.749 306.628 814.512 483.771 896.223C749.493 1018.79 1381.33 1067.81 1645.43 1333.69C1909.53 1599.56 2714.79 1394.03 2852.51 937.704C2990.23 481.382 3238.2 -221.958 1930.66 -221.958C1058.96 -221.958 552.365 -50.9982 410.859 290.933Z" fill="#D6F2FF"/>
<path d="M474.565 272.022C352.911 576.598 375.917 767.552 543.571 844.886C795.058 960.885 1393.04 1007.28 1643 1258.92C1892.95 1510.55 2655.07 1316.02 2785.42 884.144C2915.76 452.269 3150.44 -213.393 1912.95 -213.393C1087.94 -213.393 608.49 -51.5914 474.565 272.022Z" fill="#C7E1F3"/>
<path d="M538.269 253.111C423.501 540.447 445.204 720.593 603.368 793.549C840.62 902.982 1404.76 946.755 1640.56 1184.15C1876.36 1421.53 2595.35 1238.02 2718.32 830.585C2841.28 423.155 3062.68 -204.828 1895.23 -204.828C1116.93 -204.828 664.613 -52.1845 538.269 253.111Z" fill="#B8CFE6"/>
<path d="M601.972 234.2C494.09 504.296 514.492 673.633 663.166 742.212C886.183 845.079 1416.47 886.226 1638.13 1109.37C1859.78 1332.52 2535.63 1160.01 2651.22 777.026C2766.8 394.042 2974.92 -196.262 1877.52 -196.262C1145.91 -196.262 720.736 -52.7774 601.972 234.2Z" fill="#A9BEDA"/>
<path d="M665.676 215.289C564.68 468.145 583.779 626.673 722.964 690.874C931.745 787.176 1428.19 825.696 1635.7 1034.6C1843.2 1243.5 2475.91 1082.01 2584.12 723.467C2692.33 364.928 2887.15 -187.697 1859.8 -187.697C1174.9 -187.697 776.859 -53.3706 665.676 215.289Z" fill="#9AADCE"/>
<path d="M729.379 196.379C635.27 431.994 653.067 579.714 782.761 639.537C977.308 729.273 1439.9 765.167 1633.26 959.827C1826.62 1154.48 2416.19 1004 2517.02 669.907C2617.85 335.815 2799.39 -179.131 1842.09 -179.131C1203.88 -179.131 832.982 -53.9638 729.379 196.379Z" fill="#8B9BC1"/>
<path d="M793.083 177.468C705.859 395.843 722.354 532.754 842.559 588.201C1022.87 671.37 1451.61 704.637 1630.83 885.054C1810.04 1065.47 2356.47 925.995 2449.92 616.348C2543.37 306.701 2711.63 -170.565 1824.38 -170.565C1232.86 -170.565 889.104 -54.5567 793.083 177.468Z" fill="#7D8AB5"/>
<path d="M856.789 158.557C776.451 359.692 791.644 485.794 902.359 536.863C1068.43 613.467 1463.33 644.108 1628.4 810.281C1793.46 976.451 2296.75 847.99 2382.82 562.789C2468.9 277.588 2623.87 -162 1806.66 -162C1261.85 -162 945.229 -55.1498 856.789 158.557Z" fill="#6E79A9"/>
<path d="M920.492 139.646C847.041 323.541 860.931 438.834 962.156 485.526C1114 555.564 1475.04 583.578 1625.96 735.508C1776.87 887.435 2237.03 769.985 2315.72 509.23C2394.42 248.474 2536.11 -153.435 1788.95 -153.435C1290.83 -153.435 1001.35 -55.743 920.492 139.646Z" fill="#5F679C"/>
<path d="M984.196 120.736C917.63 287.39 930.219 391.875 1021.95 434.189C1159.56 497.661 1486.76 523.049 1623.53 660.736C1760.29 798.419 2177.3 691.98 2248.62 455.671C2319.94 219.361 2448.35 -144.869 1771.23 -144.869C1319.82 -144.869 1057.48 -56.3359 984.196 120.736Z" fill="#505690"/>
<path d="M1047.9 101.825C988.22 251.239 999.506 344.915 1081.75 382.852C1205.12 439.758 1498.47 462.519 1621.09 585.963C1743.71 709.403 2117.58 613.975 2181.52 402.111C2245.47 190.248 2360.59 -136.303 1753.52 -136.303C1348.8 -136.303 1113.6 -56.9291 1047.9 101.825Z" fill="#414584"/>
<path d="M1111.6 82.9137C1058.81 215.088 1068.79 297.955 1141.55 331.515C1250.68 381.855 1510.19 401.99 1618.66 511.19C1727.13 620.387 2057.86 535.97 2114.43 348.552C2170.99 161.134 2272.83 -127.738 1735.81 -127.738C1377.79 -127.738 1169.72 -57.5222 1111.6 82.9137Z" fill="#323377"/>
<path d="M410.859 290.933C282.319 612.749 306.628 814.512 483.771 896.223C749.493 1018.79 1381.33 1067.81 1645.43 1333.69C1909.53 1599.56 2714.79 1394.03 2852.51 937.704C2990.23 481.382 3238.2 -221.958 1930.66 -221.958C1058.96 -221.958 552.365 -50.9982 410.859 290.933Z" fill="#D6F2FF"/>
<path d="M474.565 272.022C352.911 576.598 375.917 767.552 543.571 844.886C795.058 960.885 1393.04 1007.28 1643 1258.92C1892.95 1510.55 2655.07 1316.02 2785.42 884.144C2915.76 452.269 3150.44 -213.393 1912.95 -213.393C1087.94 -213.393 608.49 -51.5914 474.565 272.022Z" fill="#C7E1F3"/>
<path d="M538.269 253.111C423.501 540.447 445.204 720.593 603.368 793.549C840.62 902.982 1404.76 946.755 1640.56 1184.15C1876.36 1421.53 2595.35 1238.02 2718.32 830.585C2841.28 423.155 3062.68 -204.828 1895.23 -204.828C1116.93 -204.828 664.613 -52.1845 538.269 253.111Z" fill="#B8CFE6"/>
<path d="M601.972 234.2C494.09 504.296 514.492 673.633 663.166 742.212C886.183 845.079 1416.47 886.226 1638.13 1109.37C1859.78 1332.52 2535.63 1160.01 2651.22 777.026C2766.8 394.042 2974.92 -196.262 1877.52 -196.262C1145.91 -196.262 720.736 -52.7774 601.972 234.2Z" fill="#A9BEDA"/>
<path d="M665.676 215.289C564.68 468.145 583.779 626.673 722.964 690.874C931.745 787.176 1428.19 825.696 1635.7 1034.6C1843.2 1243.5 2475.91 1082.01 2584.12 723.467C2692.33 364.928 2887.15 -187.697 1859.8 -187.697C1174.9 -187.697 776.859 -53.3706 665.676 215.289Z" fill="#9AADCE"/>
<path d="M729.379 196.379C635.27 431.994 653.067 579.714 782.761 639.537C977.308 729.273 1439.9 765.167 1633.26 959.827C1826.62 1154.48 2416.19 1004 2517.02 669.907C2617.85 335.815 2799.39 -179.131 1842.09 -179.131C1203.88 -179.131 832.982 -53.9638 729.379 196.379Z" fill="#8B9BC1"/>
<path d="M793.083 177.468C705.859 395.843 722.354 532.754 842.559 588.201C1022.87 671.37 1451.61 704.637 1630.83 885.054C1810.04 1065.47 2356.47 925.995 2449.92 616.348C2543.37 306.701 2711.63 -170.565 1824.38 -170.565C1232.86 -170.565 889.104 -54.5567 793.083 177.468Z" fill="#7D8AB5"/>
<path d="M856.789 158.557C776.451 359.692 791.644 485.794 902.359 536.863C1068.43 613.467 1463.33 644.108 1628.4 810.281C1793.46 976.451 2296.75 847.99 2382.82 562.789C2468.9 277.588 2623.87 -162 1806.66 -162C1261.85 -162 945.229 -55.1498 856.789 158.557Z" fill="#6E79A9"/>
<path d="M920.492 139.646C847.041 323.541 860.931 438.834 962.156 485.526C1114 555.564 1475.04 583.578 1625.96 735.508C1776.87 887.435 2237.03 769.985 2315.72 509.23C2394.42 248.474 2536.11 -153.435 1788.95 -153.435C1290.83 -153.435 1001.35 -55.743 920.492 139.646Z" fill="#5F679C"/>
<path d="M984.196 120.736C917.63 287.39 930.219 391.875 1021.95 434.189C1159.56 497.661 1486.76 523.049 1623.53 660.736C1760.29 798.419 2177.3 691.98 2248.62 455.671C2319.94 219.361 2448.35 -144.869 1771.23 -144.869C1319.82 -144.869 1057.48 -56.3359 984.196 120.736Z" fill="#505690"/>
<path d="M1047.9 101.825C988.22 251.239 999.506 344.915 1081.75 382.852C1205.12 439.758 1498.47 462.519 1621.09 585.963C1743.71 709.403 2117.58 613.975 2181.52 402.111C2245.47 190.248 2360.59 -136.303 1753.52 -136.303C1348.8 -136.303 1113.6 -56.9291 1047.9 101.825Z" fill="#414584"/>
<path d="M1111.6 82.9137C1058.81 215.088 1068.79 297.955 1141.55 331.515C1250.68 381.855 1510.19 401.99 1618.66 511.19C1727.13 620.387 2057.86 535.97 2114.43 348.552C2170.99 161.134 2272.83 -127.738 1735.81 -127.738C1377.79 -127.738 1169.72 -57.5222 1111.6 82.9137Z" fill="#323377"/>
</g>
<g clip-path="url(#clip1_930_4006)">
<path d="M744.693 3184C790.601 3069.06 781.919 2997 718.653 2967.82C623.753 2924.05 398.098 2906.54 303.775 2811.58C209.455 2716.63 -78.1402 2790.04 -127.326 2953.01C-176.511 3115.98 -265.07 3367.17 201.908 3367.17C513.229 3367.17 694.156 3306.12 744.693 3184Z" fill="#FFFA72"/>
<path d="M1509.14 2957.07C1637.68 2635.25 1613.37 2433.49 1436.23 2351.78C1170.51 2229.21 538.674 2180.19 274.569 1914.31C10.4733 1648.44 -794.793 1853.97 -932.513 2310.3C-1070.23 2766.62 -1318.2 3469.96 -10.6589 3469.96C861.042 3469.96 1367.64 3299 1509.14 2957.07Z" fill="#C7E1F3"/>
<path d="M1445.44 2975.98C1567.09 2671.4 1544.08 2480.45 1376.43 2403.11C1124.94 2287.11 526.958 2240.72 277.001 1989.08C27.0535 1737.45 -735.074 1931.98 -865.416 2363.86C-995.757 2795.73 -1230.44 3461.39 7.05347 3461.39C832.056 3461.39 1311.51 3299.59 1445.44 2975.98Z" fill="#B8CFE6"/>
<path d="M1381.73 2994.89C1496.5 2707.55 1474.8 2527.41 1316.63 2454.45C1079.38 2345.02 515.244 2301.24 279.436 2063.85C43.6355 1826.47 -675.352 2009.98 -798.316 2417.41C-921.281 2824.84 -1142.68 3452.83 24.7676 3452.83C803.072 3452.83 1255.39 3300.18 1381.73 2994.89Z" fill="#A9BEDA"/>
<path d="M1318.03 3013.8C1425.91 2743.7 1405.51 2574.37 1256.83 2505.79C1033.82 2402.92 503.529 2361.77 281.87 2138.63C60.2178 1915.48 -615.631 2087.99 -731.217 2470.97C-846.803 2853.96 -1054.92 3444.26 42.4819 3444.26C774.088 3444.26 1199.26 3300.78 1318.03 3013.8Z" fill="#9AADCE"/>
<path d="M1254.32 3032.71C1355.32 2779.86 1336.22 2621.33 1197.04 2557.13C988.255 2460.82 491.815 2422.3 284.304 2213.4C76.7999 2004.5 -555.909 2166 -664.118 2524.53C-772.326 2883.07 -967.155 3435.7 60.1962 3435.7C745.104 3435.7 1143.14 3301.37 1254.32 3032.71Z" fill="#8B9BC1"/>
<path d="M1190.62 3051.62C1284.73 2816.01 1266.93 2668.29 1137.24 2608.46C942.692 2518.73 480.1 2482.83 286.738 2288.17C93.3818 2093.52 -496.188 2244 -597.019 2578.09C-697.849 2912.19 -879.394 3427.13 77.9102 3427.13C716.12 3427.13 1087.02 3301.96 1190.62 3051.62Z" fill="#7D8AB5"/>
<path d="M1126.92 3070.53C1214.14 2852.16 1197.65 2715.25 1077.44 2659.8C897.13 2576.63 468.386 2543.36 289.172 2362.95C109.964 2182.53 -436.467 2322 -529.919 2631.65C-623.372 2941.3 -791.633 3418.57 95.6245 3418.57C687.136 3418.57 1030.9 3302.56 1126.92 3070.53Z" fill="#6E79A9"/>
<path d="M1063.21 3089.44C1143.55 2888.31 1128.36 2762.21 1017.64 2711.14C851.565 2634.53 456.67 2603.89 291.604 2437.72C126.544 2271.55 -376.747 2400.01 -462.822 2685.21C-548.897 2970.41 -703.874 3410 113.337 3410C658.15 3410 974.771 3303.15 1063.21 3089.44Z" fill="#5F679C"/>
<path d="M999.508 3108.35C1072.96 2924.46 1059.07 2809.17 957.844 2762.47C806.003 2692.44 444.956 2664.42 294.038 2512.49C143.126 2360.56 -317.026 2478.02 -395.723 2738.77C-474.42 2999.53 -616.113 3401.43 131.051 3401.43C629.166 3401.43 918.648 3303.74 999.508 3108.35Z" fill="#505690"/>
<path d="M935.804 3127.26C1002.37 2960.61 989.781 2856.13 898.046 2813.81C760.44 2750.34 433.241 2724.95 296.473 2587.26C159.709 2449.58 -257.304 2556.02 -328.624 2792.33C-399.943 3028.64 -528.352 3392.87 148.765 3392.87C600.181 3392.87 862.525 3304.34 935.804 3127.26Z" fill="#414584"/>
<path d="M872.101 3146.18C931.78 2996.76 920.494 2903.08 838.249 2865.15C714.878 2808.24 421.527 2785.48 298.907 2662.04C176.291 2538.6 -197.583 2634.03 -261.524 2845.89C-325.466 3057.75 -440.591 3384.3 166.479 3384.3C571.197 3384.3 806.402 3304.93 872.101 3146.18Z" fill="#323377"/>
<path d="M808.397 3165.09C861.19 3032.91 851.206 2950.04 778.451 2916.48C669.315 2866.15 409.812 2846.01 301.341 2736.81C192.873 2627.61 -137.862 2712.03 -194.425 2899.45C-250.989 3086.87 -352.831 3375.74 184.194 3375.74C542.213 3375.74 750.279 3305.52 808.397 3165.09Z" fill="#23226B"/>
<path d="M1509.14 2957.07C1637.68 2635.25 1613.37 2433.49 1436.23 2351.78C1170.51 2229.21 538.674 2180.19 274.569 1914.31C10.4733 1648.44 -794.793 1853.97 -932.513 2310.3C-1070.23 2766.62 -1318.2 3469.96 -10.6589 3469.96C861.042 3469.96 1367.64 3299 1509.14 2957.07Z" fill="#D6F2FF"/>
<path d="M1445.44 2975.98C1567.09 2671.4 1544.08 2480.45 1376.43 2403.11C1124.94 2287.11 526.958 2240.72 277.001 1989.08C27.0535 1737.45 -735.074 1931.98 -865.416 2363.86C-995.757 2795.73 -1230.44 3461.39 7.05347 3461.39C832.056 3461.39 1311.51 3299.59 1445.44 2975.98Z" fill="#C7E1F3"/>
<path d="M1381.73 2994.89C1496.5 2707.55 1474.8 2527.41 1316.63 2454.45C1079.38 2345.02 515.244 2301.24 279.436 2063.85C43.6355 1826.47 -675.352 2009.98 -798.316 2417.41C-921.281 2824.84 -1142.68 3452.83 24.7676 3452.83C803.072 3452.83 1255.39 3300.18 1381.73 2994.89Z" fill="#B8CFE6"/>
<path d="M1318.03 3013.8C1425.91 2743.7 1405.51 2574.37 1256.83 2505.79C1033.82 2402.92 503.529 2361.77 281.87 2138.63C60.2178 1915.48 -615.631 2087.99 -731.217 2470.97C-846.803 2853.96 -1054.92 3444.26 42.4819 3444.26C774.088 3444.26 1199.26 3300.78 1318.03 3013.8Z" fill="#A9BEDA"/>
<path d="M1254.32 3032.71C1355.32 2779.86 1336.22 2621.33 1197.04 2557.13C988.255 2460.82 491.815 2422.3 284.304 2213.4C76.7999 2004.5 -555.909 2166 -664.118 2524.53C-772.326 2883.07 -967.155 3435.7 60.1962 3435.7C745.104 3435.7 1143.14 3301.37 1254.32 3032.71Z" fill="#9AADCE"/>
<path d="M1190.62 3051.62C1284.73 2816.01 1266.93 2668.29 1137.24 2608.46C942.692 2518.73 480.1 2482.83 286.738 2288.17C93.3818 2093.52 -496.188 2244 -597.019 2578.09C-697.849 2912.19 -879.394 3427.13 77.9102 3427.13C716.12 3427.13 1087.02 3301.96 1190.62 3051.62Z" fill="#8B9BC1"/>
<path d="M1126.92 3070.53C1214.14 2852.16 1197.65 2715.25 1077.44 2659.8C897.13 2576.63 468.386 2543.36 289.172 2362.95C109.964 2182.53 -436.467 2322 -529.919 2631.65C-623.372 2941.3 -791.633 3418.57 95.6245 3418.57C687.136 3418.57 1030.9 3302.56 1126.92 3070.53Z" fill="#7D8AB5"/>
<path d="M1063.21 3089.44C1143.55 2888.31 1128.36 2762.21 1017.64 2711.14C851.565 2634.53 456.67 2603.89 291.604 2437.72C126.544 2271.55 -376.747 2400.01 -462.822 2685.21C-548.897 2970.41 -703.874 3410 113.337 3410C658.15 3410 974.771 3303.15 1063.21 3089.44Z" fill="#6E79A9"/>
<path d="M999.508 3108.35C1072.96 2924.46 1059.07 2809.17 957.844 2762.47C806.003 2692.44 444.956 2664.42 294.038 2512.49C143.126 2360.56 -317.026 2478.02 -395.723 2738.77C-474.42 2999.53 -616.113 3401.43 131.051 3401.43C629.166 3401.43 918.648 3303.74 999.508 3108.35Z" fill="#5F679C"/>
<path d="M935.804 3127.26C1002.37 2960.61 989.781 2856.13 898.046 2813.81C760.44 2750.34 433.241 2724.95 296.473 2587.26C159.709 2449.58 -257.304 2556.02 -328.624 2792.33C-399.943 3028.64 -528.352 3392.87 148.765 3392.87C600.181 3392.87 862.525 3304.34 935.804 3127.26Z" fill="#505690"/>
<path d="M872.101 3146.18C931.78 2996.76 920.494 2903.08 838.249 2865.15C714.878 2808.24 421.527 2785.48 298.907 2662.04C176.291 2538.6 -197.583 2634.03 -261.524 2845.89C-325.466 3057.75 -440.591 3384.3 166.479 3384.3C571.197 3384.3 806.402 3304.93 872.101 3146.18Z" fill="#414584"/>
<path d="M808.397 3165.09C861.19 3032.91 851.206 2950.04 778.451 2916.48C669.315 2866.15 409.812 2846.01 301.341 2736.81C192.873 2627.61 -137.862 2712.03 -194.425 2899.45C-250.989 3086.87 -352.831 3375.74 184.194 3375.74C542.213 3375.74 750.279 3305.52 808.397 3165.09Z" fill="#323377"/>
<path d="M1509.14 2957.07C1637.68 2635.25 1613.37 2433.49 1436.23 2351.78C1170.51 2229.21 538.674 2180.19 274.569 1914.31C10.4733 1648.44 -794.793 1853.97 -932.513 2310.3C-1070.23 2766.62 -1318.2 3469.96 -10.6589 3469.96C861.042 3469.96 1367.64 3299 1509.14 2957.07Z" fill="#D6F2FF"/>
<path d="M1445.44 2975.98C1567.09 2671.4 1544.08 2480.45 1376.43 2403.11C1124.94 2287.11 526.958 2240.72 277.001 1989.08C27.0535 1737.45 -735.074 1931.98 -865.416 2363.86C-995.757 2795.73 -1230.44 3461.39 7.05347 3461.39C832.056 3461.39 1311.51 3299.59 1445.44 2975.98Z" fill="#C7E1F3"/>
<path d="M1381.73 2994.89C1496.5 2707.55 1474.8 2527.41 1316.63 2454.45C1079.38 2345.02 515.244 2301.24 279.436 2063.85C43.6355 1826.47 -675.352 2009.98 -798.316 2417.41C-921.281 2824.84 -1142.68 3452.83 24.7676 3452.83C803.072 3452.83 1255.39 3300.18 1381.73 2994.89Z" fill="#B8CFE6"/>
<path d="M1318.03 3013.8C1425.91 2743.7 1405.51 2574.37 1256.83 2505.79C1033.82 2402.92 503.529 2361.77 281.87 2138.63C60.2178 1915.48 -615.631 2087.99 -731.217 2470.97C-846.803 2853.96 -1054.92 3444.26 42.4819 3444.26C774.088 3444.26 1199.26 3300.78 1318.03 3013.8Z" fill="#A9BEDA"/>
<path d="M1254.32 3032.71C1355.32 2779.86 1336.22 2621.33 1197.04 2557.13C988.255 2460.82 491.815 2422.3 284.304 2213.4C76.7999 2004.5 -555.909 2166 -664.118 2524.53C-772.326 2883.07 -967.155 3435.7 60.1962 3435.7C745.104 3435.7 1143.14 3301.37 1254.32 3032.71Z" fill="#9AADCE"/>
<path d="M1190.62 3051.62C1284.73 2816.01 1266.93 2668.29 1137.24 2608.46C942.692 2518.73 480.1 2482.83 286.738 2288.17C93.3818 2093.52 -496.188 2244 -597.019 2578.09C-697.849 2912.19 -879.394 3427.13 77.9102 3427.13C716.12 3427.13 1087.02 3301.96 1190.62 3051.62Z" fill="#8B9BC1"/>
<path d="M1126.92 3070.53C1214.14 2852.16 1197.65 2715.25 1077.44 2659.8C897.13 2576.63 468.386 2543.36 289.172 2362.95C109.964 2182.53 -436.467 2322 -529.919 2631.65C-623.372 2941.3 -791.633 3418.57 95.6245 3418.57C687.136 3418.57 1030.9 3302.56 1126.92 3070.53Z" fill="#7D8AB5"/>
<path d="M1063.21 3089.44C1143.55 2888.31 1128.36 2762.21 1017.64 2711.14C851.565 2634.53 456.67 2603.89 291.604 2437.72C126.544 2271.55 -376.747 2400.01 -462.822 2685.21C-548.897 2970.41 -703.874 3410 113.337 3410C658.15 3410 974.771 3303.15 1063.21 3089.44Z" fill="#6E79A9"/>
<path d="M999.508 3108.35C1072.96 2924.46 1059.07 2809.17 957.844 2762.47C806.003 2692.44 444.956 2664.42 294.038 2512.49C143.126 2360.56 -317.026 2478.02 -395.723 2738.77C-474.42 2999.53 -616.113 3401.43 131.051 3401.43C629.166 3401.43 918.648 3303.74 999.508 3108.35Z" fill="#5F679C"/>
<path d="M935.804 3127.26C1002.37 2960.61 989.781 2856.13 898.046 2813.81C760.44 2750.34 433.241 2724.95 296.473 2587.26C159.709 2449.58 -257.304 2556.02 -328.624 2792.33C-399.943 3028.64 -528.352 3392.87 148.765 3392.87C600.181 3392.87 862.525 3304.34 935.804 3127.26Z" fill="#505690"/>
<path d="M872.101 3146.18C931.78 2996.76 920.494 2903.08 838.249 2865.15C714.878 2808.24 421.527 2785.48 298.907 2662.04C176.291 2538.6 -197.583 2634.03 -261.524 2845.89C-325.466 3057.75 -440.591 3384.3 166.479 3384.3C571.197 3384.3 806.402 3304.93 872.101 3146.18Z" fill="#414584"/>
<path d="M808.397 3165.09C861.19 3032.91 851.206 2950.04 778.451 2916.48C669.315 2866.15 409.812 2846.01 301.341 2736.81C192.873 2627.61 -137.862 2712.03 -194.425 2899.45C-250.989 3086.87 -352.831 3375.74 184.194 3375.74C542.213 3375.74 750.279 3305.52 808.397 3165.09Z" fill="#323377"/>
<path d="M1509.14 2957.07C1637.68 2635.25 1613.37 2433.49 1436.23 2351.78C1170.51 2229.21 538.674 2180.19 274.569 1914.31C10.4731 1648.44 -794.793 1853.97 -932.513 2310.3C-1070.23 2766.62 -1318.2 3469.96 -10.6589 3469.96C861.042 3469.96 1367.64 3299 1509.14 2957.07Z" fill="#D6F2FF"/>
<path d="M1445.44 2975.98C1567.09 2671.4 1544.08 2480.45 1376.43 2403.11C1124.94 2287.11 526.958 2240.72 277.001 1989.08C27.0535 1737.45 -735.074 1931.98 -865.416 2363.86C-995.757 2795.73 -1230.44 3461.39 7.05347 3461.39C832.056 3461.39 1311.51 3299.59 1445.44 2975.98Z" fill="#C7E1F3"/>
<path d="M1381.73 2994.89C1496.5 2707.55 1474.8 2527.41 1316.63 2454.45C1079.38 2345.02 515.244 2301.24 279.436 2063.85C43.6355 1826.47 -675.352 2009.98 -798.316 2417.41C-921.281 2824.84 -1142.68 3452.83 24.7676 3452.83C803.072 3452.83 1255.39 3300.18 1381.73 2994.89Z" fill="#B8CFE6"/>
<path d="M1318.03 3013.8C1425.91 2743.7 1405.51 2574.37 1256.83 2505.79C1033.82 2402.92 503.529 2361.77 281.87 2138.63C60.2178 1915.48 -615.631 2087.99 -731.217 2470.97C-846.803 2853.96 -1054.92 3444.26 42.4819 3444.26C774.088 3444.26 1199.26 3300.78 1318.03 3013.8Z" fill="#A9BEDA"/>
<path d="M1254.32 3032.71C1355.32 2779.86 1336.22 2621.33 1197.04 2557.13C988.255 2460.82 491.815 2422.3 284.304 2213.4C76.7999 2004.5 -555.909 2166 -664.118 2524.53C-772.326 2883.07 -967.155 3435.7 60.1962 3435.7C745.104 3435.7 1143.14 3301.37 1254.32 3032.71Z" fill="#9AADCE"/>
<path d="M1190.62 3051.62C1284.73 2816.01 1266.93 2668.29 1137.24 2608.46C942.692 2518.73 480.1 2482.83 286.738 2288.17C93.3818 2093.52 -496.188 2244 -597.019 2578.09C-697.849 2912.19 -879.394 3427.13 77.9102 3427.13C716.12 3427.13 1087.02 3301.96 1190.62 3051.62Z" fill="#8B9BC1"/>
<path d="M1126.92 3070.53C1214.14 2852.16 1197.65 2715.25 1077.44 2659.8C897.13 2576.63 468.386 2543.36 289.172 2362.95C109.964 2182.53 -436.467 2322 -529.919 2631.65C-623.372 2941.3 -791.633 3418.57 95.6245 3418.57C687.136 3418.57 1030.9 3302.56 1126.92 3070.53Z" fill="#7D8AB5"/>
<path d="M1063.21 3089.44C1143.55 2888.31 1128.36 2762.21 1017.64 2711.14C851.565 2634.53 456.67 2603.89 291.604 2437.72C126.544 2271.55 -376.747 2400.01 -462.822 2685.21C-548.897 2970.41 -703.874 3410 113.337 3410C658.15 3410 974.771 3303.15 1063.21 3089.44Z" fill="#6E79A9"/>
<path d="M999.508 3108.35C1072.96 2924.46 1059.07 2809.17 957.844 2762.47C806.003 2692.44 444.956 2664.42 294.038 2512.49C143.126 2360.56 -317.026 2478.02 -395.723 2738.77C-474.42 2999.53 -616.113 3401.43 131.051 3401.43C629.166 3401.43 918.648 3303.74 999.508 3108.35Z" fill="#5F679C"/>
<path d="M935.804 3127.26C1002.37 2960.61 989.781 2856.13 898.046 2813.81C760.44 2750.34 433.241 2724.95 296.473 2587.26C159.709 2449.58 -257.304 2556.02 -328.624 2792.33C-399.943 3028.64 -528.352 3392.87 148.765 3392.87C600.181 3392.87 862.525 3304.34 935.804 3127.26Z" fill="#505690"/>
<path d="M872.101 3146.18C931.78 2996.76 920.494 2903.08 838.249 2865.15C714.878 2808.24 421.527 2785.48 298.907 2662.04C176.291 2538.6 -197.583 2634.03 -261.524 2845.89C-325.466 3057.75 -440.591 3384.3 166.479 3384.3C571.197 3384.3 806.402 3304.93 872.101 3146.18Z" fill="#414584"/>
<path d="M808.397 3165.09C861.19 3032.91 851.206 2950.04 778.451 2916.48C669.315 2866.15 409.812 2846.01 301.341 2736.81C192.873 2627.61 -137.862 2712.03 -194.425 2899.45C-250.989 3086.87 -352.831 3375.74 184.194 3375.74C542.213 3375.74 750.279 3305.52 808.397 3165.09Z" fill="#323377"/>
<line x1="1099" y1="3135.5" x2="1058" y2="3135.5" stroke="black"/>
</g>
<defs>
<clipPath id="clip0_930_4006">
<rect width="1920" height="1624" fill="white"/>
</clipPath>
<clipPath id="clip1_930_4006">
<rect width="1920" height="1624" fill="white" transform="matrix(-1 0 0 -1 1920 3248)"/>
</clipPath>
</defs>
</svg>
