<svg width="196" height="19" viewBox="0 0 196 19" fill="none" xmlns="http://www.w3.org/2000/svg">
<path d="M7.928 18.812C5.24 18.812 3.32 18.212 2.168 17.012C1.016 15.812 0.44 14.14 0.44 11.996V0.499999H5.24V12.452C5.24 13.316 5.432 13.956 5.816 14.372C6.216 14.772 6.896 14.972 7.856 14.972H10.592C11.488 14.972 12.136 14.772 12.536 14.372C12.952 13.956 13.16 13.316 13.16 12.452V0.499999H17.96V11.996C17.96 13.068 17.832 14.028 17.576 14.876C17.336 15.724 16.928 16.444 16.352 17.036C15.792 17.612 15.032 18.052 14.072 18.356C13.112 18.66 11.928 18.812 10.52 18.812H7.928ZM20.7826 9.452C20.7826 8.764 20.8866 8.1 21.0946 7.46C21.3026 6.82 21.6306 6.252 22.0786 5.756C22.5266 5.26 23.1026 4.86 23.8066 4.556C24.5266 4.252 25.3826 4.1 26.3746 4.1H30.5986V7.58H27.4066C26.5906 7.58 26.0386 7.724 25.7506 8.012C25.4786 8.3 25.3426 8.796 25.3426 9.5V18.5H20.7826V9.452ZM32.3608 18.5V0.499999H36.9208V3.86H42.5848C44.3608 3.86 45.7528 4.452 46.7608 5.636C47.7688 6.82 48.2728 8.388 48.2728 10.34V12.02C48.2728 13.972 47.7688 15.54 46.7608 16.724C45.7528 17.908 44.3608 18.5 42.5848 18.5H32.3608ZM41.0248 7.412H36.9208V14.948H41.0248C42.0008 14.948 42.6728 14.724 43.0408 14.276C43.4088 13.828 43.5928 13.132 43.5928 12.188V10.052C43.5928 9.108 43.4088 8.436 43.0408 8.036C42.6728 7.62 42.0008 7.412 41.0248 7.412ZM64.2043 10.7V18.5H54.3403C52.9003 18.5 51.7963 18.188 51.0283 17.564C50.2603 16.94 49.8763 16.124 49.8763 15.116C49.8763 14.012 50.2523 13.132 51.0043 12.476C51.7563 11.804 52.6603 11.108 53.7163 10.388L57.7963 7.58H50.2123V4.1H56.5243C59.2763 4.1 61.2443 4.684 62.4283 5.852C63.6123 7.004 64.2043 8.62 64.2043 10.7ZM55.6363 15.02H59.8843V10.244L55.5403 13.628C55.2683 13.836 55.0763 13.996 54.9643 14.108C54.8523 14.204 54.7963 14.332 54.7963 14.492C54.7963 14.668 54.8603 14.804 54.9883 14.9C55.1163 14.98 55.3323 15.02 55.6363 15.02ZM66.9779 18.5V4.1H75.9059C78.0019 4.1 79.5219 4.628 80.4659 5.684C81.4099 6.74 81.8819 8.172 81.8819 9.98V18.5H77.3219V9.86C77.3219 9.124 77.1939 8.604 76.9379 8.3C76.6979 7.98 76.2259 7.82 75.5219 7.82H71.5379V18.5H66.9779ZM88.7994 18.5V4.46H81.9594V0.499999H100.439V4.46H93.5994V18.5H88.7994ZM102.439 18.5V0.499999H106.999V4.1H111.367C113.463 4.1 114.983 4.628 115.927 5.684C116.871 6.74 117.343 8.172 117.343 9.98V18.5H112.783V9.86C112.783 9.124 112.655 8.604 112.399 8.3C112.159 7.98 111.687 7.82 110.983 7.82H106.999V18.5H102.439ZM120.134 9.452C120.134 8.764 120.238 8.1 120.446 7.46C120.654 6.82 120.982 6.252 121.43 5.756C121.878 5.26 122.454 4.86 123.158 4.556C123.878 4.252 124.734 4.1 125.726 4.1H129.95V7.58H126.758C125.942 7.58 125.39 7.724 125.102 8.012C124.83 8.3 124.694 8.796 124.694 9.5V18.5H120.134V9.452ZM145.668 12.644H135.372V12.74C135.372 13.652 135.572 14.26 135.972 14.564C136.372 14.868 137.06 15.02 138.036 15.02H145.332V18.5H138.3C136.892 18.5 135.7 18.348 134.724 18.044C133.764 17.724 132.988 17.284 132.396 16.724C131.82 16.148 131.396 15.46 131.124 14.66C130.868 13.86 130.74 12.98 130.74 12.02V10.196C130.74 8.292 131.292 6.772 132.396 5.636C133.5 4.484 135.308 3.908 137.82 3.908H138.78C140.124 3.908 141.244 4.068 142.14 4.388C143.036 4.708 143.74 5.164 144.252 5.756C144.78 6.332 145.148 7.028 145.356 7.844C145.564 8.66 145.668 9.564 145.668 10.556V12.644ZM139.308 7.124H137.436C136.668 7.124 136.132 7.292 135.828 7.628C135.524 7.964 135.372 8.524 135.372 9.308V9.62H141.348V9.308C141.348 8.524 141.188 7.964 140.868 7.628C140.564 7.292 140.044 7.124 139.308 7.124ZM161.681 10.7V18.5H151.817C150.377 18.5 149.273 18.188 148.505 17.564C147.737 16.94 147.353 16.124 147.353 15.116C147.353 14.012 147.729 13.132 148.481 12.476C149.233 11.804 150.137 11.108 151.193 10.388L155.273 7.58H147.689V4.1H154.001C156.753 4.1 158.721 4.684 159.905 5.852C161.089 7.004 161.681 8.62 161.681 10.7ZM153.113 15.02H157.361V10.244L153.017 13.628C152.745 13.836 152.553 13.996 152.441 14.108C152.329 14.204 152.273 14.332 152.273 14.492C152.273 14.668 152.337 14.804 152.465 14.9C152.593 14.98 152.809 15.02 153.113 15.02ZM179.863 0.499999V18.5H169.639C167.863 18.5 166.471 17.908 165.463 16.724C164.455 15.54 163.951 13.972 163.951 12.02V10.58C163.951 8.628 164.455 7.06 165.463 5.876C166.471 4.692 167.863 4.1 169.639 4.1H175.303V0.499999H179.863ZM171.199 14.948H175.303V7.652H171.199C170.223 7.652 169.551 7.876 169.183 8.324C168.815 8.772 168.631 9.468 168.631 10.412V12.308C168.631 13.252 168.815 13.932 169.183 14.348C169.551 14.748 170.223 14.948 171.199 14.948ZM190.562 13.46L186.65 12.692C185.21 12.404 184.106 11.9 183.338 11.18C182.586 10.46 182.21 9.5 182.21 8.3C182.21 7.74 182.314 7.204 182.522 6.692C182.746 6.18 183.082 5.732 183.53 5.348C183.994 4.964 184.578 4.66 185.282 4.436C186.002 4.212 186.85 4.1 187.826 4.1H194.978V7.58H187.466C186.986 7.58 186.666 7.652 186.506 7.796C186.346 7.94 186.266 8.1 186.266 8.276C186.266 8.468 186.338 8.636 186.482 8.78C186.626 8.924 186.874 9.028 187.226 9.092L190.778 9.788C192.538 10.14 193.794 10.668 194.546 11.372C195.314 12.06 195.698 12.98 195.698 14.132C195.698 15.428 195.202 16.484 194.21 17.3C193.234 18.1 191.746 18.5 189.746 18.5H182.69V15.02H190.514C191.026 15.02 191.354 14.948 191.498 14.804C191.658 14.66 191.738 14.476 191.738 14.252C191.738 14.012 191.626 13.836 191.402 13.724C191.194 13.612 190.914 13.524 190.562 13.46Z" fill="#323377"/>
</svg>
