<svg width="14" height="14" viewBox="0 0 14 14" fill="none" xmlns="http://www.w3.org/2000/svg">
<path d="M3.5 10.1111C3.5 10.5407 3.8134 10.8889 4.2 10.8889C4.5866 10.8889 4.9 10.5407 4.9 10.1111V8.55556C4.9 8.126 4.5866 7.77778 4.2 7.77778C3.8134 7.77778 3.5 8.126 3.5 8.55556V10.1111Z" fill="#00182E"/>
<path d="M7 10.8889C6.6134 10.8889 6.3 10.5407 6.3 10.1111V3.88889C6.3 3.45933 6.6134 3.11111 7 3.11111C7.3866 3.11111 7.7 3.45933 7.7 3.88889V10.1111C7.7 10.5407 7.3866 10.8889 7 10.8889Z" fill="#00182E"/>
<path d="M9.1 10.1111C9.1 10.5407 9.4134 10.8889 9.8 10.8889C10.1866 10.8889 10.5 10.5407 10.5 10.1111V5.44444C10.5 5.01489 10.1866 4.66667 9.8 4.66667C9.4134 4.66667 9.1 5.01489 9.1 5.44444V10.1111Z" fill="#00182E"/>
<path fill-rule="evenodd" clip-rule="evenodd" d="M0 1.55556C0 0.696446 0.626801 0 1.4 0H12.6C13.3732 0 14 0.696446 14 1.55556V12.4444C14 13.3036 13.3732 14 12.6 14H1.4C0.626802 14 0 13.3036 0 12.4444V1.55556ZM1.4 1.55556H12.6V12.4444H1.4V1.55556Z" fill="#00182E"/>
</svg>
