<svg width="24" height="24" viewBox="0 0 24 24" fill="none" xmlns="http://www.w3.org/2000/svg">
<path fill-rule="evenodd" clip-rule="evenodd" d="M2.0625 6C2.0625 5.48223 2.48223 5.0625 3 5.0625H21C21.5178 5.0625 21.9375 5.48223 21.9375 6C21.9375 6.51777 21.5178 6.9375 21 6.9375H3C2.48223 6.9375 2.0625 6.51777 2.0625 6Z" fill="#00182E"/>
<path fill-rule="evenodd" clip-rule="evenodd" d="M2.0625 12C2.0625 11.4822 2.48223 11.0625 3 11.0625H21C21.5178 11.0625 21.9375 11.4822 21.9375 12C21.9375 12.5178 21.5178 12.9375 21 12.9375H3C2.48223 12.9375 2.0625 12.5178 2.0625 12Z" fill="#00182E"/>
<path fill-rule="evenodd" clip-rule="evenodd" d="M2.0625 18C2.0625 17.4822 2.48223 17.0625 3 17.0625H21C21.5178 17.0625 21.9375 17.4822 21.9375 18C21.9375 18.5178 21.5178 18.9375 21 18.9375H3C2.48223 18.9375 2.0625 18.5178 2.0625 18Z" fill="#00182E"/>
</svg>
