<svg width="28" height="28" viewBox="0 0 28 28" fill="none" xmlns="http://www.w3.org/2000/svg">
<path d="M6.39969 4.66667H26L23.3333 14H7.83561M24.6667 19.3333H8.66667L6 2H2M10 24.6667C10 25.4031 9.40304 26 8.66667 26C7.93029 26 7.33333 25.4031 7.33333 24.6667C7.33333 23.9303 7.93029 23.3333 8.66667 23.3333C9.40304 23.3333 10 23.9303 10 24.6667ZM24.6667 24.6667C24.6667 25.4031 24.0697 26 23.3333 26C22.5969 26 22 25.4031 22 24.6667C22 23.9303 22.5969 23.3333 23.3333 23.3333C24.0697 23.3333 24.6667 23.9303 24.6667 24.6667Z" stroke="#D6F2FF" stroke-width="3" stroke-linecap="round" stroke-linejoin="round"/>
</svg>
