<svg width="14" height="14" viewBox="0 0 14 14" fill="none" xmlns="http://www.w3.org/2000/svg">
<g id="Location">
<g id="Union">
<path fill-rule="evenodd" clip-rule="evenodd" d="M8.74935 5.24935C8.74935 6.21585 7.96585 6.99935 6.99935 6.99935C6.03285 6.99935 5.24935 6.21585 5.24935 5.24935C5.24935 4.28285 6.03285 3.49935 6.99935 3.49935C7.96585 3.49935 8.74935 4.28285 8.74935 5.24935ZM7.58268 5.24935C7.58268 5.57152 7.32152 5.83268 6.99935 5.83268C6.67718 5.83268 6.41602 5.57152 6.41602 5.24935C6.41602 4.92718 6.67718 4.66602 6.99935 4.66602C7.32152 4.66602 7.58268 4.92718 7.58268 5.24935Z" fill="#00182E"/>
<path fill-rule="evenodd" clip-rule="evenodd" d="M11.0827 5.24935C11.0827 7.36751 8.92911 10.4086 7.74993 11.915C7.3054 12.4829 6.99935 12.8327 6.99935 12.8327C6.99935 12.8327 6.6933 12.4829 6.24877 11.915C5.06959 10.4086 2.91602 7.36751 2.91602 5.24935C2.91602 2.99419 4.74419 1.16602 6.99935 1.16602C9.25451 1.16602 11.0827 2.99419 11.0827 5.24935ZM9.91602 5.24935C9.91602 5.73567 9.73733 6.3964 9.3814 7.18453C9.03409 7.95356 8.56055 8.75223 8.07029 9.48762C7.69611 10.0489 7.32059 10.5608 6.99935 10.9791C6.67811 10.5608 6.30259 10.0489 5.92841 9.48762C5.43815 8.75223 4.96461 7.95356 4.6173 7.18453C4.26137 6.3964 4.08268 5.73567 4.08268 5.24935C4.08268 3.63852 5.38852 2.33268 6.99935 2.33268C8.61018 2.33268 9.91602 3.63852 9.91602 5.24935Z" fill="#00182E"/>
</g>
</g>
</svg>
