<svg width="14" height="14" viewBox="0 0 14 14" fill="none" xmlns="http://www.w3.org/2000/svg">
<g id="Mail-2">
<path id="Vector" fill-rule="evenodd" clip-rule="evenodd" d="M6.63582 1.20811C6.87492 1.15198 7.12378 1.15198 7.36288 1.20811C7.63601 1.27222 7.8788 1.4305 8.15502 1.61059C8.17423 1.62311 8.1936 1.63574 8.21315 1.64845L12.0577 4.14739C12.0669 4.15338 12.0762 4.15943 12.0856 4.16554L12.2052 4.24326C12.2148 4.24951 12.2247 4.2559 12.2348 4.26245C12.3439 4.33284 12.4812 4.42141 12.5858 4.54653C12.6762 4.65479 12.7442 4.78002 12.7857 4.91487C12.8336 5.07072 12.833 5.23408 12.8326 5.36394C12.8326 5.37601 12.8325 5.3878 12.8325 5.39926V9.30909C12.8325 9.73595 12.8325 10.0882 12.8091 10.3752C12.7847 10.6733 12.7325 10.9473 12.6013 11.2047C12.398 11.6038 12.0735 11.9283 11.6743 12.1317C11.417 12.2628 11.143 12.3151 10.8449 12.3394C10.5579 12.3629 10.2056 12.3629 9.77876 12.3628H4.21994C3.79308 12.3629 3.44078 12.3629 3.15379 12.3394C2.85572 12.3151 2.58172 12.2628 2.32435 12.1317C1.92523 11.9283 1.60074 11.6038 1.39738 11.2047C1.26624 10.9473 1.21397 10.6733 1.18962 10.3752C1.16617 10.0882 1.16618 9.73594 1.16618 9.30907L1.16618 5.39926C1.16618 5.3878 1.16614 5.37601 1.1661 5.36393C1.16566 5.23408 1.16511 5.07072 1.21303 4.91487C1.2545 4.78001 1.32246 4.65479 1.41292 4.54653C1.51748 4.42141 1.65475 4.33284 1.76387 4.26245C1.77401 4.2559 1.78392 4.24951 1.79353 4.24326L1.91311 4.16554C1.92249 4.15943 1.93181 4.15337 1.94102 4.14739C1.9456 4.14441 1.95016 4.14145 1.95469 4.13851L5.78555 1.64845C5.8051 1.63574 5.82446 1.62312 5.84367 1.61059C6.1199 1.4305 6.36268 1.27222 6.63582 1.20811ZM6.36355 2.53768L2.65829 4.9461L6.38379 7.88338C6.73516 8.11144 6.8109 8.15151 6.87817 8.1673C6.95787 8.186 7.04082 8.186 7.12053 8.1673C7.1878 8.15151 7.26354 8.11144 7.61491 7.88338L11.3404 4.9461L7.63515 2.53768C7.26641 2.298 7.18907 2.25671 7.12053 2.24062C7.04082 2.22191 6.95787 2.22191 6.87817 2.24062C6.80962 2.25671 6.73229 2.298 6.36355 2.53768ZM11.7719 5.95644L8.25247 8.73128C8.2398 8.74127 8.22668 8.75067 8.21315 8.75947C8.1936 8.77217 8.17424 8.7848 8.15504 8.79732C7.87881 8.97741 7.63602 9.1357 7.36288 9.19981C7.12378 9.25593 6.87492 9.25593 6.63582 9.19981C6.36268 9.1357 6.1199 8.97741 5.84367 8.79732C5.82446 8.7848 5.8051 8.77217 5.78554 8.75947C5.77202 8.75067 5.7589 8.74127 5.74623 8.73128L2.22676 5.95644V9.28717C2.22676 9.74141 2.22717 10.0502 2.24667 10.2889C2.26567 10.5214 2.3001 10.6402 2.34236 10.7232C2.44404 10.9227 2.60628 11.085 2.80584 11.1867C2.88878 11.2289 3.00767 11.2634 3.24016 11.2824C3.47884 11.3019 3.78762 11.3023 4.24185 11.3023H9.75684C10.2111 11.3023 10.5199 11.3019 10.7585 11.2824C10.991 11.2634 11.1099 11.2289 11.1929 11.1867C11.3924 11.085 11.5547 10.9227 11.6563 10.7232C11.6986 10.6402 11.733 10.5214 11.752 10.2889C11.7715 10.0502 11.7719 9.74141 11.7719 9.28717V5.95644Z" fill="#00182E"/>
</g>
</svg>
