<svg width="14" height="14" viewBox="0 0 14 14" fill="none" xmlns="http://www.w3.org/2000/svg">
<g id="Phone">
<path id="Vector" fill-rule="evenodd" clip-rule="evenodd" d="M10.0144 2.39139C10.1692 2.31311 10.352 2.31311 10.5067 2.39139C10.5636 2.42014 10.6361 2.48233 10.9685 2.81467L11.0574 2.90364C11.3742 3.22038 11.4572 3.30986 11.5238 3.42838C11.6012 3.56608 11.6665 3.81724 11.666 3.97518C11.6656 4.11563 11.6452 4.19957 11.5519 4.5285C11.0924 6.14717 10.2258 7.67471 8.95023 8.95023C7.67471 10.2258 6.14717 11.0924 4.5285 11.5519C4.19957 11.6452 4.11563 11.6656 3.97518 11.666C3.81724 11.6665 3.56608 11.6012 3.42838 11.5238C3.30986 11.4572 3.22038 11.3742 2.90364 11.0574L2.81467 10.9685C2.48233 10.6361 2.42014 10.5636 2.39139 10.5067C2.31311 10.352 2.31311 10.1692 2.39139 10.0144C2.42014 9.9576 2.48233 9.88504 2.81468 9.5527L2.92465 9.44272C3.14301 9.22436 3.19028 9.18161 3.22529 9.15885C3.40605 9.04132 3.63908 9.04132 3.81984 9.15885C3.85485 9.18161 3.90212 9.22436 4.12048 9.44272C4.12479 9.44703 4.12922 9.45147 4.13376 9.45603C4.18425 9.50672 4.24947 9.57218 4.32782 9.62829C4.60739 9.82848 4.98706 9.89322 5.31718 9.79699C5.40927 9.77014 5.48511 9.73357 5.54296 9.70568C5.54758 9.70345 5.55209 9.70128 5.55648 9.69917C6.43311 9.27828 7.25414 8.70474 7.97944 7.97944C8.70474 7.25414 9.27828 6.43311 9.69917 5.55648C9.70128 5.55209 9.70345 5.54758 9.70569 5.54295C9.73358 5.4851 9.77014 5.40927 9.79699 5.31718C9.89322 4.98706 9.82848 4.60739 9.62829 4.32783C9.57219 4.24947 9.50672 4.18425 9.45603 4.13376C9.45147 4.12921 9.44703 4.12479 9.44272 4.12048C9.22436 3.90212 9.18161 3.85485 9.15885 3.81984C9.04133 3.63908 9.04132 3.40605 9.15885 3.22529C9.18161 3.19028 9.22436 3.14301 9.44272 2.92465L9.5527 2.81467C9.88504 2.48233 9.9576 2.42014 10.0144 2.39139ZM11.0333 1.35032C10.5475 1.10458 9.97371 1.10458 9.48787 1.35032C9.24087 1.47525 9.02675 1.68995 8.78249 1.93487C8.76441 1.95299 8.74617 1.97128 8.72774 1.98972L8.61776 2.09969C8.60562 2.11184 8.59357 2.12386 8.58164 2.13577C8.42045 2.29668 8.27965 2.43722 8.18074 2.58935C7.8118 3.1568 7.8118 3.88833 8.18074 4.45578C8.27965 4.60791 8.42045 4.74845 8.58164 4.90936C8.59357 4.92127 8.60562 4.93329 8.61776 4.94544C8.63428 4.96196 8.64691 4.97459 8.65779 4.98562C8.66351 4.99141 8.66813 4.99614 8.67192 5.00007C8.67075 5.0026 8.66942 5.00546 8.66789 5.00871C8.6625 5.02016 8.65616 5.03337 8.64744 5.05152C8.28276 5.81109 7.7854 6.52356 7.15448 7.15448C6.52356 7.7854 5.81109 8.28276 5.05152 8.64744C5.03337 8.65616 5.02015 8.6625 5.00871 8.66789C5.00546 8.66942 5.0026 8.67075 5.00007 8.67192C4.99614 8.66813 4.99141 8.66351 4.98562 8.65779C4.97459 8.64691 4.96196 8.63428 4.94544 8.61776C4.93329 8.60562 4.92127 8.59357 4.90936 8.58164C4.74845 8.42045 4.60791 8.27965 4.45578 8.18074C3.88833 7.8118 3.1568 7.8118 2.58935 8.18074C2.43722 8.27965 2.29668 8.42045 2.13577 8.58164C2.12386 8.59357 2.11184 8.60562 2.09969 8.61776L1.98972 8.72774C1.97128 8.74617 1.95299 8.76442 1.93486 8.78249C1.68995 9.02675 1.47525 9.24087 1.35032 9.48787C1.10458 9.97371 1.10458 10.5475 1.35032 11.0333C1.47525 11.2803 1.68995 11.4944 1.93487 11.7387C1.953 11.7568 1.97129 11.775 1.98972 11.7934L2.07868 11.8824C2.09181 11.8955 2.10479 11.9085 2.11763 11.9214C2.37947 12.1835 2.58258 12.3868 2.85699 12.541C3.1702 12.7169 3.6194 12.8337 3.97865 12.8327C4.29276 12.8317 4.52216 12.7665 4.81458 12.6834C4.82532 12.6804 4.83614 12.6773 4.84706 12.6742C6.65219 12.1618 8.3554 11.195 9.77519 9.77519C11.195 8.3554 12.1618 6.65219 12.6742 4.84706C12.6773 4.83615 12.6804 4.82533 12.6834 4.8146C12.7665 4.52217 12.8317 4.29277 12.8327 3.97865C12.8337 3.6194 12.7169 3.1702 12.541 2.85699C12.3868 2.58259 12.1835 2.37947 11.9214 2.11763C11.9085 2.10479 11.8955 2.09181 11.8824 2.07868L11.7934 1.98972C11.775 1.97128 11.7568 1.95299 11.7387 1.93487C11.4944 1.68995 11.2803 1.47525 11.0333 1.35032Z" fill="#00182E"/>
</g>
</svg>
