<svg width="348" height="348" viewBox="0 0 348 348" fill="none" xmlns="http://www.w3.org/2000/svg">
<g clip-path="url(#clip0_1721_6398)">
<path opacity="0.1" d="M40.216 306.418C79.4005 340.505 216.55 363.12 297.413 285.146C378.275 207.172 316.38 -5.84839 174.065 14.5579C31.7493 34.9643 60.5437 93.1889 48.3998 138.653C36.2559 184.118 1.0315 272.331 40.216 306.418Z" fill="#2A94F4"/>
<path opacity="0.1" d="M238.649 338.09C264.646 338.09 285.721 335.337 285.721 331.941C285.721 328.546 264.646 325.793 238.649 325.793C212.651 325.793 191.576 328.546 191.576 331.941C191.576 335.337 212.651 338.09 238.649 338.09Z" fill="#2A94F4"/>
<path opacity="0.1" d="M105.378 336.668C134.58 336.668 158.253 333.601 158.253 329.818C158.253 326.034 134.58 322.967 105.378 322.967C76.1752 322.967 52.502 326.034 52.502 329.818C52.502 333.601 76.1752 336.668 105.378 336.668Z" fill="#2A94F4"/>
<path opacity="0.1" d="M175.822 348.001C205.024 348.001 228.698 345.877 228.698 343.258C228.698 340.639 205.024 338.516 175.822 338.516C146.62 338.516 122.946 340.639 122.946 343.258C122.946 345.877 146.62 348.001 175.822 348.001Z" fill="#2A94F4"/>
<path d="M203.53 47.5965C203.53 47.5965 201.443 40.8676 201.626 39.986C201.738 39.4437 203.039 36.1067 203.476 35.0125C203.638 34.6052 203.803 34.1908 203.842 33.7526C203.883 33.3044 203.79 32.8539 203.68 32.416C203.374 31.2006 202.932 30.0225 202.491 28.848C202.374 28.5358 202.255 28.2213 202.08 27.9374C201.867 27.5936 201.576 27.3046 201.287 27.021C199.636 25.4001 197.935 23.8308 196.186 22.3156C196.093 22.2357 195.993 22.1519 195.871 22.139C195.582 22.1078 194.595 24.0501 194.567 24.499C194.452 26.3721 194.858 28.2803 195.73 29.9571C195.903 30.2909 196.097 30.6215 196.18 30.9876C196.399 31.9588 195.801 32.8906 195.502 33.8341C195.232 34.6867 194.952 35.5983 194.837 36.4863C194.626 38.1142 196.049 39.2204 196.26 39.52C196.378 39.686 196.413 39.8932 196.448 40.092C196.678 41.3896 197.104 46.2435 197.104 46.2435" fill="#FCD2B1"/>
<path d="M230.787 60.5977C228.926 61.8691 228.713 64.8845 228.614 66.9319C228.493 69.3982 228.84 71.8651 229.329 74.277C229.67 75.9554 230.115 77.6935 231.25 78.9766C231.83 79.6316 232.559 80.1324 233.282 80.626C233.691 80.906 234.109 81.1902 234.586 81.3265C235.063 81.4625 235.616 81.4277 236 81.1139C236.559 80.6553 236.569 79.8182 236.532 79.0958C236.295 74.3862 236.152 69.5922 237.351 65.0311" fill="#0B4870"/>
<path d="M218.28 318.376C218.28 318.376 218.24 322.819 218.554 324.395C218.869 325.972 223.95 325.464 224.438 324.566C224.925 323.669 224.317 316.326 224.317 316.326" fill="#FCD2B1"/>
<path d="M225.907 326.083C226.046 327.749 226.037 330.895 226.037 330.895L220.827 332.151L220.164 331.265C220.164 331.265 218.708 332.509 217.103 332.934C215.911 333.249 213.419 333.491 212.189 333.408C207.885 333.12 204.916 331.778 204.768 331.148C204.151 328.517 209.871 328.847 211.035 328.75C214.378 328.472 216.63 326.073 217.282 324.365C217.755 323.125 217.476 322.844 218.186 323.01C218.186 323.01 218.82 323.088 219.297 323.791C220.029 324.87 221.3 325.528 222.594 325.195C223.334 325.005 224.063 324.665 224.561 324.069C224.561 324.069 225.769 324.418 225.907 326.083Z" fill="#0B4870"/>
<path d="M228.228 263.85C227.734 256.044 234.039 245.598 234.039 245.598C234.039 245.598 217.015 236.245 216.759 233.336C216.759 233.336 214.428 249.398 213.592 255.065C212.139 264.909 217.051 321.058 217.051 321.058C217.051 321.058 220.613 322.047 225.345 321.173C225.345 321.173 226.23 299.485 229.776 284.794C231.457 277.827 228.815 265.781 228.228 263.85Z" fill="#0E538C"/>
<path d="M229.595 173.855C223.204 188.117 216.263 234.137 214.599 250.023C213.894 256.76 219.504 264.654 226.037 258.563C233.836 251.292 244.807 217.981 248.727 212.101C252.647 206.221 267.315 200.831 257.297 170.996" fill="#0E538C"/>
<path d="M258.292 318.656C258.292 318.656 258.867 324.92 259.094 326.512C259.32 328.103 264.422 327.879 264.958 327.01C265.495 326.141 265.298 318.776 265.298 318.776" fill="#FCD2B1"/>
<path d="M266.4 328.33C266.512 329.997 266.23 332.745 266.23 332.745L260.36 333.139L260.005 332.179C260.005 332.179 258.168 333.286 256.672 333.387L251.717 333.72C248.09 333.964 245.999 333.64 245.864 333.008C245.302 330.366 249.643 330.196 250.772 330.12C254.012 329.903 257.417 328.15 258.071 326.455C258.546 325.224 258.28 324.939 258.965 325.117C258.965 325.117 259.578 325.206 260.03 325.917C260.724 327.01 261.947 327.691 263.203 327.382C263.922 327.205 264.633 326.878 265.123 326.292C265.123 326.292 266.288 326.662 266.4 328.33Z" fill="#0B4870"/>
<path d="M245.531 262.928C246.613 268.478 261.111 266.405 260.798 261.49C260.353 254.502 265.25 245.471 267.127 212.21C267.342 208.41 271.149 207.852 272.648 197.518C274.127 187.165 267.996 175.707 267.996 175.707L245.689 172.514C245.689 172.514 237.116 191.857 238.889 211.145C240.662 230.432 244.249 256.393 245.531 262.928Z" fill="#0E538C"/>
<path d="M260.76 260.322C260.76 260.322 265.831 270.369 266.426 277.631C267.297 288.257 266.221 323.229 266.221 323.229C266.221 323.229 260.734 324.42 257.805 323.557C257.805 323.557 244.928 261.508 244.456 254.836C243.984 248.164 260.76 260.322 260.76 260.322Z" fill="#0E538C"/>
<path d="M220.957 106.603C223.478 103.71 231.482 98.943 242.179 99.2807C249.549 99.513 269.62 100.73 271.863 105.66C273.009 108.18 274.24 133.989 272.561 142.889C271.299 149.58 268.07 166.157 268.07 170.157C268.07 174.158 270.219 175.873 269.216 177.035C266.97 179.636 251.613 180.729 244.403 180.729C237.985 180.729 227.062 179.018 226.508 176.962C225.685 173.91 227.76 174.025 228.041 170.825C228.322 167.627 229.834 146.527 227.955 143.461C224.973 138.593 222.01 125.773 221.781 122.105C221.552 118.437 218.435 109.495 220.957 106.603Z" fill="#2A94F4"/>
<path d="M239.837 91.6149C239.837 91.6149 239.765 100.516 239.406 100.876C239.346 100.935 239.247 101.008 239.124 101.088C237.989 101.827 237.479 103.224 237.801 104.539C238.341 106.747 239.279 109.583 240.481 109.227C241.823 108.829 248.368 105.61 252.271 103.665C253.311 103.147 253.689 101.969 253.417 100.839C253.409 100.804 253.404 100.768 253.404 100.732C253.404 100.014 255.127 86.0156 255.127 86.0156" fill="#FCD2B1"/>
<path d="M239.008 58.9004C237.395 59.9673 232.406 60.5402 231.755 62.8976C231.104 65.2546 231.516 70.2964 231.457 71.7442C231.341 74.6261 231.617 77.5738 231.79 80.448C232.016 84.1939 232.595 91.0002 236.916 92.7714C238.157 93.2799 238.68 93.4117 239.951 93.2338C241.642 92.997 243.338 92.8004 245.029 92.561C247.648 92.1898 250.558 91.8044 252.752 90.1969C255.683 88.0493 255.995 82.944 255.828 79.6012L254.874 60.4551L239.008 58.9004Z" fill="#FFE3CA"/>
<path d="M238.745 117.442C239.13 109.992 213.459 80.7807 213.771 79.5128C214.084 78.2452 202.253 41.0449 202.253 41.0449L195.53 41.5656C195.53 41.5656 197.728 73.0232 200.73 83.5383C202.843 90.9404 219.315 112.746 219.315 112.746C219.315 112.746 238.36 124.891 238.745 117.442Z" fill="#2A94F4"/>
<path d="M256.291 166.721L295.011 174.031C295.261 174.078 295.498 174.176 295.708 174.319C295.917 174.463 296.095 174.648 296.23 174.863C296.364 175.079 296.453 175.32 296.489 175.571C296.526 175.822 296.511 176.079 296.443 176.324L291.256 203.105C291.134 203.551 290.849 203.934 290.457 204.178C290.065 204.423 289.596 204.511 289.142 204.426L250.422 197.117C250.173 197.069 249.936 196.971 249.726 196.828C249.516 196.685 249.338 196.499 249.204 196.284C249.069 196.068 248.981 195.827 248.944 195.576C248.907 195.325 248.923 195.069 248.99 194.824L254.177 168.042C254.299 167.596 254.585 167.213 254.976 166.969C255.368 166.724 255.837 166.636 256.291 166.721Z" fill="#0B4870"/>
<path d="M256.748 168.779L293.82 175.777L288.685 202.371L251.612 195.373L256.748 168.779Z" fill="#F7F7F7"/>
<path d="M255.764 193.978L259.814 171.34M259.26 194.656L263.31 172.018M264.292 195.686L268.341 173.048M269.322 196.716L273.372 174.079M274.353 197.747L278.894 175.109M279.384 198.777L283.925 176.139M284.416 199.808L289.142 177.17" stroke="#D3D3D3" stroke-width="0.528" stroke-miterlimit="10" stroke-linecap="round" stroke-linejoin="round"/>
<path d="M276.819 186.191C276.819 186.191 275.287 189.315 274.467 190.901C273.932 191.936 269.865 195.4 268.234 198.16C267.447 199.491 266.754 200.996 266.955 202.53C267.156 204.064 268.597 205.517 270.11 205.193C270.541 205.1 271.034 204.889 271.382 205.159C271.558 205.296 271.636 205.521 271.744 205.716C272.079 206.316 272.8 206.676 273.48 206.582C274.16 206.489 274.757 205.948 274.917 205.28C275.957 206.252 277.767 206.232 278.785 205.238C278.179 204.739 277.727 203.967 277.851 203.192C277.97 202.444 278.572 201.886 279.034 201.286C279.852 200.217 280.28 198.9 280.248 197.555C280.222 196.604 279.966 195.675 279.862 194.73C279.647 192.791 280.093 190.785 281.108 189.119" fill="#FCD2B1"/>
<path d="M265.155 123.631C266.326 127.802 284.148 155.237 284.148 155.237L274.607 190.012L280.046 193.416C280.046 193.416 297.009 165.229 297.062 157.271C297.114 149.311 284.653 120.132 275.543 108.201C272.643 104.403 266.83 102.486 266.83 102.486" fill="#2A94F4"/>
<path d="M256.638 75.9599C255.31 75.6757 254.229 75.2694 253.856 76.5753C253.658 77.2678 253.682 78.1259 253.091 78.5367C252.501 78.9456 251.631 78.5815 251.252 77.9725C250.873 77.3635 250.849 76.6063 250.837 75.889L250.755 71.1272C250.729 69.5728 250.652 67.8805 249.642 66.6986C249.132 66.1018 248.429 65.6997 247.703 65.401C245.337 64.4266 242.68 64.4521 240.138 64.7501C237.597 65.0482 235.077 65.603 232.519 65.6375C231.444 65.6517 230.346 65.5689 229.35 65.1648C227.741 64.5123 226.537 63.0488 225.975 61.4054C225.414 59.7621 225.448 57.958 225.826 56.2631C226.188 56.7725 226.607 57.2389 227.074 57.6535C227.115 56.7974 227.329 55.9583 227.702 55.1869C229.67 58.8251 245.527 52.1664 249.893 52.6178C252.919 52.9303 255.355 52.9842 256.683 57.2836C256.851 57.5365 257.146 57.668 257.423 57.7933C260.467 59.1705 262.339 61.4476 263.911 65.2276C265.833 69.8522 264.764 75.898 263.345 80.7008C262.989 81.9078 262.84 82.7304 262.127 83.768C261.414 84.8052 259.873 85.7071 258.625 85.8695C257.377 86.0322 255.097 86.8958 254.681 85.7078C254.383 84.8577 255.708 82.7291 255.987 81.8733" fill="#0B4870"/>
<path d="M253.852 81.846C253.852 81.846 253.922 82.7044 254.625 83.1665C255.242 83.5719 256.1 83.201 256.642 82.8043C258.188 81.6743 258.825 79.5953 258.577 77.7474C258.284 75.5695 256.506 73.881 254.805 75.0333C253.809 75.7077 253.534 77.1796 253.922 78.3177" fill="#FFE3CA"/>
<path d="M249.967 186.872L253.318 187.666L255.738 175.136L252.377 174.426L249.967 186.872Z" fill="#0B4870"/>
<path d="M247.732 183.017L251.572 183.742L252.705 177.75L248.865 177.024C247.21 176.711 245.615 177.799 245.302 179.454C245.228 179.848 245.232 180.252 245.313 180.644C245.395 181.036 245.553 181.408 245.779 181.739C246.005 182.07 246.293 182.353 246.628 182.572C246.964 182.791 247.338 182.942 247.732 183.017ZM248.019 181.708C247.795 181.67 247.581 181.588 247.389 181.466C247.197 181.344 247.032 181.185 246.902 180.999C246.772 180.812 246.681 180.602 246.634 180.379C246.586 180.157 246.583 179.928 246.626 179.704C246.668 179.481 246.754 179.268 246.879 179.079C247.004 178.889 247.166 178.726 247.355 178.6C247.544 178.474 247.756 178.386 247.979 178.343C248.202 178.299 248.431 178.3 248.654 178.346C249.093 178.437 249.479 178.697 249.729 179.07C249.978 179.443 250.071 179.899 249.988 180.339C249.905 180.78 249.652 181.171 249.284 181.427C248.915 181.683 248.461 181.784 248.019 181.708Z" fill="#0B4870"/>
<path d="M180.643 27.9578C180.928 25.5649 175.419 23.9458 174.867 25.9239C174.807 26.1359 174.331 26.7185 174.202 27.6085C174.091 28.3673 173.759 29.2518 173.663 30.0151C173.576 30.7086 173.741 33.9537 172.122 34.3004C169.641 34.832 171.214 30.5146 169.464 29.546C168.915 29.2421 168.332 32.5894 168.29 34.4828C168.249 36.3755 168.239 37.3241 168.416 38.4387C168.571 39.5539 169.188 41.1312 169.101 41.8065C168.962 42.8937 167.692 45.127 167.692 45.127L173.961 46.5538C173.961 46.5538 175.442 43.1086 176.2 42.3073C178.103 40.4087 179.294 38.2296 179.995 35.5938C180.434 33.9427 180.584 32.2191 180.71 30.5204C180.71 30.5201 180.614 28.2046 180.643 27.9578Z" fill="#FCD2B1"/>
<path d="M121.702 80.3578C121.702 80.3578 141.581 80.1821 152.373 68.0869C160.983 56.0229 169.301 42.6761 169.922 41.4375C171.616 42.0852 175.257 43.7511 175.257 43.7511C175.257 43.7511 163.883 69.2015 159.452 75.0143C155.021 80.8269 146.305 90.3473 127.883 95.0733C119.059 84.942 121.702 80.3578 121.702 80.3578ZM134.657 317.66C134.657 317.66 135.801 320.269 135.743 322.02C135.686 323.772 130.13 324.13 129.445 323.251C128.762 322.372 128.108 314.366 128.108 314.366" fill="#FCD2B1"/>
<path d="M128.039 324.851C128.115 326.671 128.743 329.616 128.743 329.616L135.152 329.352L135.424 328.269C135.424 328.269 137.546 329.254 139.178 329.186L144.588 328.964C148.548 328.801 150.776 328.203 150.847 327.503C151.146 324.573 146.42 324.9 145.189 324.951C141.651 325.097 137.754 323.598 136.845 321.837C136.186 320.559 136.44 320.218 135.719 320.493C135.719 320.493 135.065 320.662 134.659 321.486C134.036 322.751 132.791 323.633 131.392 323.447C130.593 323.34 129.784 323.069 129.183 322.491C129.183 322.491 127.965 323.03 128.039 324.851Z" fill="#0B4870"/>
<path d="M72.053 314.182C72.053 314.182 71.0606 318.923 70.3581 320.529C69.6563 322.134 64.3622 320.409 64.0526 319.34C63.7423 318.27 66.1006 310.592 66.1006 310.592" fill="#FCD2B1"/>
<path d="M62.1533 320.305C61.5488 322.024 60.6846 325.342 60.6846 325.342L65.6619 328.039L66.5854 327.281C66.5854 327.281 67.7284 328.975 69.2515 329.846C70.3825 330.493 72.8623 331.404 74.1428 331.641C78.623 332.472 82.0312 331.84 82.3569 331.216C83.7193 328.605 77.7794 327.446 76.6162 327.037C73.2767 325.862 71.6408 322.74 71.4487 320.768C71.3095 319.337 71.672 319.114 70.9 319.101C70.9 319.101 70.2307 319.016 69.5479 319.632C68.5001 320.576 67.0166 320.934 65.787 320.243C65.0839 319.847 64.4323 319.297 64.0888 318.537C64.0895 318.537 62.7578 318.586 62.1533 320.305Z" fill="#0B4870"/>
<path d="M89.4267 188.25C89.4267 188.25 79.8596 167.754 94.4269 151.988C94.4269 151.988 107.628 157.257 118.036 157.53C126.232 157.745 130.347 156.727 130.347 156.727C130.347 156.727 132.812 171.829 132.782 195.668L89.4267 188.25ZM127.575 319.966C127.838 319.974 128.101 319.964 128.345 319.953C133.753 319.787 136.805 319.022 136.805 319.022L136.741 317.465C135.457 293.604 136.741 254.465 136.797 242.111C136.799 241.246 136.747 240.459 136.625 239.749C135.314 230.76 126.035 232.327 122.454 240.784C121.614 242.755 120.97 244.925 120.502 247.256C119.922 250.063 119.577 253.104 119.428 256.325C118.455 277.008 125.346 304.642 127.575 319.966Z" fill="#FFBE55"/>
<path d="M106.315 197.193C106.362 197.436 106.429 197.696 106.496 197.957C109.008 208.739 116.918 237.835 120.501 247.238L120.502 247.257C121.026 248.57 122.668 249.63 124.736 250.09C129.481 251.174 136.41 249.14 136.625 239.75C136.657 238.714 136.592 237.589 136.448 236.373C135.516 228.797 132.116 186.862 131.611 182.823C131.125 178.782 130.15 172.9 127.979 172.237C117.148 168.98 102.892 182.106 106.315 197.193ZM86.8338 241.641C93.7838 234.543 103.973 237.348 99.7101 248.096C95.151 259.588 80.9088 291.559 73.4081 314.239L72.8868 315.716C72.8868 315.716 69.4793 315.27 63.9551 313.224C67.3652 298.562 69.2508 273.457 76.862 255.704C79.3093 249.997 83.2317 245.321 86.8338 241.641Z" fill="#FFBE55"/>
<path d="M124.81 173.144C125.522 156.296 105.054 168.308 95.2457 174.266C91.1171 176.773 89.7631 181.505 89.3774 185.923C88.9884 190.342 85.4285 235.81 84.6797 244.11C82.9903 262.821 98.8265 251.975 100.151 246.755C103.49 233.577 124.421 182.324 124.81 173.144Z" fill="#FFBE55"/>
<path d="M122.022 66.9026C122.065 68.1712 122.114 73.1308 119.479 74.315C116.844 75.5175 115.154 76.0221 115.23 76.4291C115.26 76.6137 115.52 77.4866 115.8 78.3421C116.405 80.2567 117.324 80.7323 117.324 80.7323L117.705 87.0817L112.97 91.8029L111.424 93.3412L109.1 91.2139L101.524 84.3135C101.524 84.3135 104.646 80.4672 102.49 76.345C102.182 75.764 98.7295 71.9408 95.9761 68.0896C94.3737 65.8247 93.0094 63.5692 92.6492 61.9577C91.6612 57.5497 90.8293 52.9094 93.359 50.1415C95.8704 47.3733 113.218 35.9931 116.69 49.3463C116.69 49.3466 121.978 65.634 122.022 66.9026Z" fill="#FFE3CA"/>
<path d="M101.502 63.0502C101.502 63.0502 105.669 64.554 105.24 58.8994C105.217 58.5904 105.438 58.3139 105.765 58.2169C106.984 57.8563 109.674 56.4305 108.304 50.9711C108.19 50.5155 108.523 50.0673 109.036 49.9977C110.806 49.7579 114.46 49.2859 115.271 49.3587C115.271 49.3587 115.673 49.3191 116.273 49.4189C116.469 49.4515 116.638 49.562 116.727 49.7218C117.01 50.2274 118.625 55.3807 118.625 55.3807C118.625 55.3807 120.551 53.9288 120.345 52.9492C120.139 51.9697 119.231 49.8923 119.335 49.3709C119.439 48.8493 120.92 48.2357 120.931 47.0625C120.955 44.4097 119.92 34.2548 111.866 40.4985C110.812 41.3151 109.877 42.2972 108.944 42.6404C107.726 43.0879 106.35 42.2247 103.699 42.4116C99.9943 42.6723 84.0749 46.3955 89.1718 60.5524C94.2681 74.7092 102.655 76.7289 102.655 76.7289C102.655 76.7289 99.9053 64.8505 101.502 63.0502Z" fill="#0B4870"/>
<path d="M101.502 63.0506C101.502 63.0506 100.714 60.6171 98.6788 61.3183C95.9467 62.2598 96.1929 69.1212 102.144 68.2174C102.144 68.2174 101.347 65.4124 101.502 63.0506Z" fill="#FFE3CA"/>
<path d="M139.449 170.996C139.449 170.996 109.393 176.362 82.3369 171.34C83.649 162.981 88.7817 139.361 89.129 129.827L89.1664 128.855C89.3813 122.767 89.4928 118.42 89.6282 118.242C89.8998 117.867 88.9367 98.4397 90.532 90.8256C90.8242 89.423 91.2116 88.428 91.7042 88.0245C94.8717 85.3917 98.5946 82.6331 102.75 80.5709C102.75 80.5709 112.431 90.9858 117.371 79.4602C122.807 78.9707 125.574 80.0682 127.146 85.5086C135.848 115.734 139.449 170.996 139.449 170.996Z" fill="#2A94F4"/>
<path d="M121.427 79.5328C121.427 79.5328 130.43 79.6859 139.614 75.6152C144.739 81.6411 147.837 92.6237 147.837 92.6237C147.837 92.6237 135.447 100.499 126.39 101.256C124.448 88.0553 121.427 79.5328 121.427 79.5328Z" fill="#2A94F4"/>
<path d="M137.39 98.8123L138.465 100.939L136.384 99.778L120.259 82.9719L121.265 82.0059L137.39 98.8123Z" fill="#0B4870"/>
<path d="M85.7578 118.176C85.7578 118.176 89.9245 132.551 100.76 139.32C103.917 141.291 107.879 140.189 110.359 137.414C117.777 129.118 125.193 110.428 127.566 103.372C123.217 101.063 121.827 101.423 121.827 101.423C121.827 101.423 111.306 116.028 105.27 125.802L100.762 117.94" fill="#FCD2B1"/>
<path d="M121.518 101.968C121.518 101.968 123.452 98.8421 123.542 96.474C123.633 94.106 122.511 90.0125 124.812 87.882C125.668 87.089 128.664 85.8749 132.037 86.433C137.055 87.2633 133.087 95.9643 132.859 97.9405C132.515 100.911 128.374 102.168 127.474 103.648C126.833 104.701 121.518 101.968 121.518 101.968Z" fill="#FCD2B1"/>
<path d="M94.186 86.0391C94.186 86.0391 83.02 93.3535 82.5428 105.806C82.1738 115.434 88.54 129.483 88.54 129.483C88.54 129.483 99.5874 130.701 105.386 121.672C103.668 117.286 102.165 113.39 98.8656 108.213" fill="#2A94F4"/>
<path d="M168.268 9.73474L171.774 46.8232C171.797 47.0622 171.869 47.2941 171.985 47.504C172.102 47.7139 172.261 47.8974 172.452 48.0428C172.643 48.1883 172.862 48.2925 173.096 48.349C173.329 48.4055 173.572 48.413 173.808 48.3711L199.413 43.831C199.843 43.7548 200.229 43.5197 200.493 43.1723C200.757 42.8249 200.881 42.3906 200.84 41.956L197.334 4.86757C197.311 4.6285 197.239 4.39672 197.122 4.18682C197.006 3.97693 196.847 3.79348 196.656 3.64805C196.465 3.50261 196.246 3.39834 196.012 3.34182C195.779 3.28529 195.536 3.27773 195.3 3.31962L169.695 7.85941C169.265 7.93558 168.879 8.17079 168.615 8.51827C168.35 8.86575 168.226 9.30003 168.268 9.73474Z" fill="#FFBE55"/>
<path d="M170.163 10.3438L173.521 45.854L198.944 41.3458L195.587 5.83594L170.163 10.3438Z" fill="#F7F7F7"/>
<path d="M193.817 9.11523L172.212 12.9461M194.15 12.4663L172.546 16.2972M186.414 17.8826L172.913 20.2767M186.382 20.8683L172.881 23.2624M186.349 23.8537L172.848 26.2478M195.961 37.1283L182.459 39.5224" stroke="#D3D3D3" stroke-width="0.528" stroke-miterlimit="10" stroke-linecap="round" stroke-linejoin="round"/>
<path d="M185.279 157.465C186.896 156.703 188.098 155.293 189.248 153.925L192.65 149.874C193.098 149.341 193.566 148.758 193.617 148.065C191.716 147.91 190.491 150.38 188.588 150.527C189.476 147.391 190.745 144.377 192.367 141.551C192.762 140.862 193.192 140.059 192.911 139.316C190.856 140.101 189.125 141.563 187.628 143.175C186.575 144.308 185.618 145.526 184.765 146.817C182.255 150.615 180.7 154.974 179.642 159.402M177.096 189.917L156.711 172.718C156.711 172.718 147.224 185.585 150.798 197.999C152.555 204.103 154.762 207.129 155.72 210.026C156.614 212.732 162.75 251.033 162.292 253.834C161.834 256.634 158.54 264.469 157.283 272.709C155.77 282.619 156.027 314.908 154.854 323.469C153.682 332.03 161.588 333.479 162.023 330.582C165.738 305.827 175.553 267.25 176.926 254.874C178.299 242.497 177.742 219.834 177.096 189.917Z" fill="#FCD2B1"/>
<path d="M163.395 322.633C163.395 322.633 161.497 331.615 162.008 332.76C162.518 333.905 164.355 337.233 166.235 338.435C168.209 339.697 172.579 341.198 172.929 341.745C173.279 342.292 172.211 341.617 171.587 342.106C169.978 343.371 166.917 343.402 165.089 343.1C159.164 342.122 159.907 341.56 156.455 341.141C155.859 341.068 154.755 341.949 153.106 341.106C151.457 340.262 150.656 338.738 150.798 337.303C151.043 334.829 152.432 332.79 153.421 330.96C154.411 329.13 155.107 320.756 155.107 320.756" fill="#FCD2B1"/>
<path d="M173.28 341.881C173.312 341.208 170.74 340.19 169.591 339.661C168.442 339.132 166.619 338.666 167.261 339.013C167.903 339.36 166.717 340.708 165.646 340.59C149.961 338.858 152.743 332.997 152.609 332.412C152.032 332.779 150.688 335.681 150.416 336.594C150.17 337.419 150.03 338.898 149.963 339.787C149.683 343.546 172.998 347.793 173.28 341.881Z" fill="#0B4870"/>
<path d="M204.931 343.637C204.493 343.153 199.771 342.385 197.556 341.46C195.446 340.578 192.889 337.743 192.392 336.54C191.895 335.338 192.009 329.243 192.072 326.684C192.514 309.056 195.771 265.98 196.243 255.664C197.063 237.734 194.735 219.227 187.837 190.443L162.148 170.729C162.148 170.729 154.954 184.103 157.362 196.89C158.76 204.309 164.914 205.45 165.954 208.333C166.994 211.216 182.536 257.706 182.536 257.706C182.536 257.706 179.512 267.756 179.337 278.767C179.186 288.166 183.449 316.519 184.24 327.321C184.333 329.432 184.696 334.485 184.075 336.093C183.312 338.064 181.37 340.379 181.467 342.865C181.524 344.307 181.679 343.959 183.5 344.523C185.32 345.088 187.221 345.76 187.847 345.734C191.468 345.584 192.499 345.628 198.751 345.626C200.68 345.625 203.448 347.006 204.93 345.492C205.505 344.906 205.369 344.121 204.931 343.637Z" fill="#FCD2B1"/>
<path d="M205.469 345.845C205.666 344.996 205.765 343.92 205.312 343.716C204.684 343.433 202.453 342.459 201.192 342.124C199.931 341.789 197.985 341.626 198.696 341.864C199.408 342.102 198.377 343.688 197.252 343.688C183.14 343.688 183.499 338.291 183.278 337.734C182.734 338.192 181.125 341.281 180.973 342.228C180.836 343.084 180.819 344.58 180.957 345.459C181.203 347.026 204.881 348.383 205.469 345.845Z" fill="#0B4870"/>
<path d="M157.248 170.556C155.505 172.47 149.292 182.823 149.226 191.25C149.16 199.676 152.158 205.08 152.427 206.839C154.397 219.711 156.303 235.236 156.303 236.079C156.303 236.921 163.61 241.795 173.436 241.176C191.593 240.034 198.653 235.278 198.653 235.278C198.653 235.278 197.793 204.096 194.994 188.721C193.591 181.016 187.483 168.615 187.483 168.615" fill="#0E538C"/>
<path d="M140.683 136.885C140.683 136.885 143.607 151.415 144.374 154.001C145.142 156.587 148.935 173.004 152.531 172.718C156.127 172.432 175.821 155.991 175.821 155.991L173.032 150.412L155.696 158.677C155.696 158.677 154.13 139.909 152.757 135.439" fill="#FFBE9D"/>
<path d="M152.427 116.746C152.427 116.746 146.678 117.359 143.763 119.589C136.331 125.276 142.083 145.918 142.083 145.918C142.083 145.918 141.716 147.02 146.706 146.74C151.696 146.46 155.697 145.04 155.697 145.04L154.255 128.126" fill="#FFBE55"/>
<path d="M179.901 78.6606C183.364 83.152 182.679 89.4682 181.825 95.0752L180.529 103.58C180.324 104.927 180.05 106.399 179.001 107.268C177.943 108.144 176.431 108.129 175.058 108.07L175.099 115.109C171.086 115.206 167.07 115.222 163.055 115.157C163.052 113.508 162.697 111.879 162.014 110.378C160.05 110.34 158.738 108.37 157.969 106.563C157.082 104.478 156.437 102.3 155.813 100.123C154.985 97.2325 154.187 94.2971 154.111 91.2917C154.035 88.2863 154.75 85.1624 156.659 82.8398C157.96 81.2561 159.734 80.1325 161.552 79.1839C164.042 77.8847 167.032 76.859 169.6 77.9968" fill="#FFE3CA"/>
<path d="M175.747 100.056C175.273 97.6975 175.306 96.367 176.079 94.7962C176.334 94.2755 176.672 93.7847 177.134 93.4609C177.758 93.023 178.587 92.937 179.279 93.2386C179.73 93.4354 180.102 93.8024 180.357 94.2436C181.176 91.0751 181.347 87.6986 181.111 84.4084C180.736 79.1903 177.59 75.1567 172.998 73.2704C164.494 69.7772 152.278 73.2282 148.824 81.5751C146.216 87.8794 147.538 96.9783 152.532 102.263C156.952 106.942 163.311 107.629 169.179 106.665C172.181 106.172 176.816 106.468 178.369 102.385C178.489 102.069 178.219 101.755 177.9 101.78C176.682 101.873 175.835 100.493 175.747 100.056Z" fill="#0B4870"/>
<path d="M176.4 88.9569C176.716 89.4522 176.642 90.1179 176.938 90.6247C177.437 91.476 178.099 91.7838 178.994 92.1988C180.437 92.8677 180.099 94.9689 180.058 95.9085C181.146 95.1848 181.323 93.2144 181.586 92.2133C181.881 91.0894 182.07 89.9361 182.397 88.8212C182.716 87.7366 183.267 86.7146 183.369 85.5736C183.722 81.6309 181.248 76.9967 178.259 74.7836C176.083 73.1725 172.761 73.2392 170.302 74.8777C169.267 75.5679 168.488 76.6103 168.03 77.7668C167.834 78.2636 167.698 78.842 167.942 79.317M194.464 111.488L186.194 147.813C186.141 148.047 186.137 148.29 186.182 148.525C186.227 148.761 186.321 148.985 186.457 149.183C186.593 149.381 186.768 149.549 186.972 149.676C187.176 149.802 187.404 149.885 187.642 149.919L213.383 153.616C213.815 153.678 214.254 153.575 214.614 153.328C214.974 153.08 215.228 152.707 215.325 152.281L223.594 115.957C223.647 115.722 223.652 115.48 223.606 115.244C223.561 115.008 223.468 114.784 223.332 114.586C223.196 114.388 223.02 114.221 222.816 114.094C222.612 113.967 222.384 113.884 222.146 113.85L196.406 110.154C195.974 110.092 195.534 110.195 195.174 110.442C194.814 110.689 194.561 111.063 194.464 111.488Z" fill="#0B4870"/>
<path d="M196.073 112.66L188.155 147.439L213.713 151.109L221.631 116.33L196.073 112.66Z" fill="#F7F7F7"/>
<path d="M218.924 118.892L197.205 115.773M218.193 122.18L196.474 119.061M209.151 124.905L195.578 122.955M208.186 127.73L194.613 125.781M207.221 130.556L193.648 128.607M212.198 146.17L198.625 144.221" stroke="#D3D3D3" stroke-width="0.528" stroke-miterlimit="10" stroke-linecap="round" stroke-linejoin="round"/>
<path d="M184.331 140.186C184.331 140.186 196.095 168.615 201.199 168.615C204.911 168.615 214.015 142.372 214.015 142.372L208.263 139.649L201.849 150.64L195.354 130.141" fill="#FFE3CA"/>
<path d="M207.121 141.605C207.121 141.605 209.028 138.603 208.888 136.473C208.835 135.661 208.353 131.796 208.756 131.036C209.159 130.276 210.126 127.79 210.679 127.306C211.231 126.823 213.275 126.045 213.775 126.391C214.274 126.736 214.98 125.674 215.725 125.285C220.549 122.77 223.919 132.997 218.825 137.049C217.906 137.78 217.131 139.382 215.616 140.298C214.869 140.75 214.459 141.541 213.745 142.882" fill="#FFE3CA"/>
<path d="M190.252 167.179C189.705 166.369 188.44 165.401 187.987 164.509C186.899 162.371 185.947 153.364 186.322 151.063C186.723 148.597 188.905 147.271 189.89 141.781C191.159 134.71 188.26 129.214 186.639 126.86C184.348 123.531 185.706 123.551 184.922 119.473C184.781 118.738 184.615 117.954 184.113 117.442C183.618 116.937 180.203 115.376 179.532 115.273C173.163 114.286 169.421 115.056 162.983 115.338C159.798 115.477 156.618 115.849 153.491 116.539C150.03 117.302 147.015 118.22 146.303 122.916C145.203 130.18 146.128 137.523 148.336 144.412C149.8 148.978 158.539 164.775 156.374 167.832C155.879 168.531 154.64 169.858 154.49 170.73C153.942 173.923 161.156 175.045 164.243 175.299C168.947 175.685 174.345 175.426 179.06 175.206C182.632 175.039 190.445 173.792 191.001 169.378C191.109 168.511 190.681 167.813 190.252 167.179Z" fill="#FFBE55"/>
<path d="M173.512 114.834C176.575 114.993 185.494 113.428 190.45 118.612C194.602 122.955 196.982 134.341 198.653 138.959C194.494 143.199 190.486 146.618 184.183 145.242C183.946 145.065 180.819 135.224 178.542 134.348" fill="#FFBE55"/>
<path d="M177.901 101.778C177.901 101.778 188.465 115.195 182.517 130.139C175.241 148.421 174.594 149.39 182.517 160.166C190.44 170.942 183.411 184.172 172.04 187.601C160.669 191.03 131.467 189.376 133.233 163.775C133.955 153.307 140.994 151.682 138.106 141.213C135.218 130.745 134.594 124.247 139.96 113.056C145.326 101.865 139.728 71.0096 168.428 72.0881C168.428 72.0878 163.185 105.12 177.901 101.778Z" fill="#0B4870"/>
</g>
<defs>
<clipPath id="clip0_1721_6398">
<rect width="348" height="348" fill="white"/>
</clipPath>
</defs>
</svg>
